<?xml version="1.0" encoding="UTF-8" standalone="no"?>
<!DOCTYPE svg PUBLIC "-//W3C//DTD SVG 1.1//EN"
 "http://www.w3.org/Graphics/SVG/1.1/DTD/svg11.dtd">
<!-- Generated by graphviz version 2.40.1 (0)
 -->
<!-- Title: snakemake_dag Pages: 1 -->
<svg width="975pt" height="332pt"
 viewBox="0.00 0.00 974.50 332.00" xmlns="http://www.w3.org/2000/svg" xmlns:xlink="http://www.w3.org/1999/xlink">
<g id="graph0" class="graph" transform="scale(1 1) rotate(0) translate(4 328)">
<title>snakemake_dag</title>
<polygon fill="#ffffff" stroke="transparent" points="-4,4 -4,-328 970.5,-328 970.5,4 -4,4"/>
<!-- 0 -->
<g id="node1" class="node">
<title>0</title>
<path fill="none" stroke="#afd856" stroke-width="2" d="M629,-36C629,-36 599,-36 599,-36 593,-36 587,-30 587,-24 587,-24 587,-12 587,-12 587,-6 593,0 599,0 599,0 629,0 629,0 635,0 641,-6 641,-12 641,-12 641,-24 641,-24 641,-30 635,-36 629,-36"/>
<text text-anchor="middle" x="614" y="-15.5" font-family="sans" font-size="10.00" fill="#000000">all</text>
</g>
<!-- 1 -->
<g id="node2" class="node">
<title>1</title>
<path fill="none" stroke="#d89c56" stroke-width="2" d="M675,-252C675,-252 515,-252 515,-252 509,-252 503,-246 503,-240 503,-240 503,-228 503,-228 503,-222 509,-216 515,-216 515,-216 675,-216 675,-216 681,-216 687,-222 687,-228 687,-228 687,-240 687,-240 687,-246 681,-252 675,-252"/>
<text text-anchor="middle" x="595" y="-231.5" font-family="sans" font-size="10.00" fill="#000000">region_enrichment_analysis_LOLA</text>
</g>
<!-- 1&#45;&gt;0 -->
<g id="edge2" class="edge">
<title>1&#45;&gt;0</title>
<path fill="none" stroke="#c0c0c0" stroke-width="2" d="M596.5872,-215.9555C599.8983,-178.3144 607.5623,-91.1867 611.5261,-46.1246"/>
<polygon fill="#c0c0c0" stroke="#c0c0c0" stroke-width="2" points="615.0141,-46.4133 612.4039,-36.1451 608.041,-45.7999 615.0141,-46.4133"/>
</g>
<!-- 3 -->
<g id="node4" class="node">
<title>3</title>
<path fill="none" stroke="#d85656" stroke-width="2" d="M489.5,-180C489.5,-180 384.5,-180 384.5,-180 378.5,-180 372.5,-174 372.5,-168 372.5,-168 372.5,-156 372.5,-156 372.5,-150 378.5,-144 384.5,-144 384.5,-144 489.5,-144 489.5,-144 495.5,-144 501.5,-150 501.5,-156 501.5,-156 501.5,-168 501.5,-168 501.5,-174 495.5,-180 489.5,-180"/>
<text text-anchor="middle" x="437" y="-159.5" font-family="sans" font-size="10.00" fill="#000000">plot_enrichment_result</text>
</g>
<!-- 1&#45;&gt;3 -->
<g id="edge12" class="edge">
<title>1&#45;&gt;3</title>
<path fill="none" stroke="#c0c0c0" stroke-width="2" d="M555.1299,-215.8314C534.0923,-206.2446 508.1017,-194.4008 485.8604,-184.2655"/>
<polygon fill="#c0c0c0" stroke="#c0c0c0" stroke-width="2" points="487.1345,-180.9999 476.5834,-180.038 484.2317,-187.3697 487.1345,-180.9999"/>
</g>
<!-- 11 -->
<g id="node12" class="node">
<title>11</title>
<path fill="none" stroke="#567bd8" stroke-width="2" d="M574,-180C574,-180 532,-180 532,-180 526,-180 520,-174 520,-168 520,-168 520,-156 520,-156 520,-150 526,-144 532,-144 532,-144 574,-144 574,-144 580,-144 586,-150 586,-156 586,-156 586,-168 586,-168 586,-174 580,-180 574,-180"/>
<text text-anchor="middle" x="553" y="-159.5" font-family="sans" font-size="10.00" fill="#000000">aggregate</text>
</g>
<!-- 1&#45;&gt;11 -->
<g id="edge23" class="edge">
<title>1&#45;&gt;11</title>
<path fill="none" stroke="#c0c0c0" stroke-width="2" d="M584.4016,-215.8314C579.7123,-207.7925 574.0972,-198.1666 568.9202,-189.2918"/>
<polygon fill="#c0c0c0" stroke="#c0c0c0" stroke-width="2" points="571.8031,-187.2875 563.7411,-180.4133 565.7566,-190.8146 571.8031,-187.2875"/>
</g>
<!-- 2 -->
<g id="node3" class="node">
<title>2</title>
<path fill="none" stroke="#d87556" stroke-width="2" d="M730.5,-324C730.5,-324 641.5,-324 641.5,-324 635.5,-324 629.5,-318 629.5,-312 629.5,-312 629.5,-300 629.5,-300 629.5,-294 635.5,-288 641.5,-288 641.5,-288 730.5,-288 730.5,-288 736.5,-288 742.5,-294 742.5,-300 742.5,-300 742.5,-312 742.5,-312 742.5,-318 736.5,-324 730.5,-324"/>
<text text-anchor="middle" x="686" y="-303.5" font-family="sans" font-size="10.00" fill="#000000">load_lola_resources</text>
</g>
<!-- 2&#45;&gt;1 -->
<g id="edge10" class="edge">
<title>2&#45;&gt;1</title>
<path fill="none" stroke="#c0c0c0" stroke-width="2" d="M663.0369,-287.8314C651.8285,-278.9632 638.1791,-268.1637 626.0561,-258.5718"/>
<polygon fill="#c0c0c0" stroke="#c0c0c0" stroke-width="2" points="627.9697,-255.6229 617.9558,-252.1628 623.6263,-261.1125 627.9697,-255.6229"/>
</g>
<!-- 3&#45;&gt;0 -->
<g id="edge1" class="edge">
<title>3&#45;&gt;0</title>
<path fill="none" stroke="#c0c0c0" stroke-width="2" d="M449.9782,-143.7599C464.4765,-124.2888 489.4234,-93.3604 516,-72 534.7375,-56.9401 558.2597,-43.8217 577.5623,-34.2868"/>
<polygon fill="#c0c0c0" stroke="#c0c0c0" stroke-width="2" points="579.1717,-37.3965 586.6597,-29.9011 576.1319,-31.0909 579.1717,-37.3965"/>
</g>
<!-- 4 -->
<g id="node5" class="node">
<title>4</title>
<path fill="none" stroke="#56d88a" stroke-width="2" d="M599.5,-324C599.5,-324 432.5,-324 432.5,-324 426.5,-324 420.5,-318 420.5,-312 420.5,-312 420.5,-300 420.5,-300 420.5,-294 426.5,-288 432.5,-288 432.5,-288 599.5,-288 599.5,-288 605.5,-288 611.5,-294 611.5,-300 611.5,-300 611.5,-312 611.5,-312 611.5,-318 605.5,-324 599.5,-324"/>
<text text-anchor="middle" x="516" y="-303.5" font-family="sans" font-size="10.00" fill="#000000">region_enrichment_analysis_GREAT</text>
</g>
<!-- 4&#45;&gt;0 -->
<g id="edge7" class="edge">
<title>4&#45;&gt;0</title>
<path fill="none" stroke="#c0c0c0" stroke-width="2" d="M611.9412,-287.9989C648.9571,-278.9351 685.0451,-266.7238 696,-252 744.7238,-186.5137 676.2834,-89.6612 637.5116,-43.8341"/>
<polygon fill="#c0c0c0" stroke="#c0c0c0" stroke-width="2" points="640.0634,-41.4338 630.8805,-36.1492 634.7636,-46.0068 640.0634,-41.4338"/>
</g>
<!-- 4&#45;&gt;3 -->
<g id="edge14" class="edge">
<title>4&#45;&gt;3</title>
<path fill="none" stroke="#c0c0c0" stroke-width="2" d="M505.6863,-287.5272C499.8813,-277.1068 492.5121,-263.8404 486,-252 474.4981,-231.087 461.5946,-207.3764 451.9173,-189.5437"/>
<polygon fill="#c0c0c0" stroke="#c0c0c0" stroke-width="2" points="454.7463,-187.4184 446.9022,-180.2965 448.5929,-190.7555 454.7463,-187.4184"/>
</g>
<!-- 5 -->
<g id="node6" class="node">
<title>5</title>
<path fill="none" stroke="#88d856" stroke-width="2" d="M397,-252C397,-252 311,-252 311,-252 305,-252 299,-246 299,-240 299,-240 299,-228 299,-228 299,-222 305,-216 311,-216 311,-216 397,-216 397,-216 403,-216 409,-222 409,-228 409,-228 409,-240 409,-240 409,-246 403,-252 397,-252"/>
<text text-anchor="middle" x="354" y="-231.5" font-family="sans" font-size="10.00" fill="#000000">gene_ORA_GSEApy</text>
</g>
<!-- 4&#45;&gt;5 -->
<g id="edge17" class="edge">
<title>4&#45;&gt;5</title>
<path fill="none" stroke="#c0c0c0" stroke-width="2" d="M475.1206,-287.8314C453.454,-278.2018 426.6637,-266.295 403.7922,-256.1299"/>
<polygon fill="#c0c0c0" stroke="#c0c0c0" stroke-width="2" points="405.1451,-252.9011 394.5855,-252.038 402.3021,-259.2978 405.1451,-252.9011"/>
</g>
<!-- 4&#45;&gt;11 -->
<g id="edge26" class="edge">
<title>4&#45;&gt;11</title>
<path fill="none" stroke="#c0c0c0" stroke-width="2" d="M504.8479,-287.8083C494.9554,-269.1874 483.5632,-239.7007 494,-216 498.984,-204.6819 507.6412,-194.7031 516.8125,-186.5015"/>
<polygon fill="#c0c0c0" stroke="#c0c0c0" stroke-width="2" points="519.1256,-189.13 524.568,-180.0399 514.6448,-183.752 519.1256,-189.13"/>
</g>
<!-- 5&#45;&gt;0 -->
<g id="edge5" class="edge">
<title>5&#45;&gt;0</title>
<path fill="none" stroke="#c0c0c0" stroke-width="2" d="M351.4059,-215.9716C349.5752,-196.6814 349.4609,-165.9066 363,-144 410.1781,-67.6643 519.2514,-35.9644 576.8397,-24.175"/>
<polygon fill="#c0c0c0" stroke="#c0c0c0" stroke-width="2" points="577.8223,-27.5494 586.967,-22.1991 576.4818,-20.6789 577.8223,-27.5494"/>
</g>
<!-- 5&#45;&gt;3 -->
<g id="edge13" class="edge">
<title>5&#45;&gt;3</title>
<path fill="none" stroke="#c0c0c0" stroke-width="2" d="M374.9444,-215.8314C385.0691,-207.0485 397.3777,-196.3712 408.3548,-186.8489"/>
<polygon fill="#c0c0c0" stroke="#c0c0c0" stroke-width="2" points="410.8019,-189.3595 416.0623,-180.1628 406.2149,-184.0718 410.8019,-189.3595"/>
</g>
<!-- 5&#45;&gt;11 -->
<g id="edge25" class="edge">
<title>5&#45;&gt;11</title>
<path fill="none" stroke="#c0c0c0" stroke-width="2" d="M408.8127,-215.9707C438.859,-205.8513 476.6668,-192.7313 510,-180 510.0992,-179.9621 510.1986,-179.9241 510.298,-179.886"/>
<polygon fill="#c0c0c0" stroke="#c0c0c0" stroke-width="2" points="511.7278,-183.0847 519.7491,-176.163 509.1622,-176.5718 511.7278,-183.0847"/>
</g>
<!-- 6 -->
<g id="node7" class="node">
<title>6</title>
<path fill="none" stroke="#56d8a9" stroke-width="2" d="M120,-324C120,-324 12,-324 12,-324 6,-324 0,-318 0,-312 0,-312 0,-300 0,-300 0,-294 6,-288 12,-288 12,-288 120,-288 120,-288 126,-288 132,-294 132,-300 132,-300 132,-312 132,-312 132,-318 126,-324 120,-324"/>
<text text-anchor="middle" x="66" y="-303.5" font-family="sans" font-size="10.00" fill="#000000">load_enrichr_databases</text>
</g>
<!-- 6&#45;&gt;5 -->
<g id="edge18" class="edge">
<title>6&#45;&gt;5</title>
<path fill="none" stroke="#c0c0c0" stroke-width="2" d="M132.0378,-290.1243C192.1364,-275.6574 273.7457,-255.9579 289,-252 289.0992,-251.9743 289.1984,-251.9485 289.2978,-251.9227"/>
<polygon fill="#c0c0c0" stroke="#c0c0c0" stroke-width="2" points="289.9363,-255.374 298.7146,-249.4417 288.1528,-248.605 289.9363,-255.374"/>
</g>
<!-- 9 -->
<g id="node10" class="node">
<title>9</title>
<path fill="none" stroke="#56d8d0" stroke-width="2" d="M268.5,-252C268.5,-252 153.5,-252 153.5,-252 147.5,-252 141.5,-246 141.5,-240 141.5,-240 141.5,-228 141.5,-228 141.5,-222 147.5,-216 153.5,-216 153.5,-216 268.5,-216 268.5,-216 274.5,-216 280.5,-222 280.5,-228 280.5,-228 280.5,-240 280.5,-240 280.5,-246 274.5,-252 268.5,-252"/>
<text text-anchor="middle" x="211" y="-231.5" font-family="sans" font-size="10.00" fill="#000000">gene_preranked_GSEApy</text>
</g>
<!-- 6&#45;&gt;9 -->
<g id="edge21" class="edge">
<title>6&#45;&gt;9</title>
<path fill="none" stroke="#c0c0c0" stroke-width="2" d="M102.5896,-287.8314C121.7239,-278.3302 145.3229,-266.6121 165.6122,-256.5374"/>
<polygon fill="#c0c0c0" stroke="#c0c0c0" stroke-width="2" points="167.2735,-259.6203 174.6735,-252.038 164.1603,-253.3506 167.2735,-259.6203"/>
</g>
<!-- 7 -->
<g id="node8" class="node">
<title>7</title>
<path fill="none" stroke="#569ad8" stroke-width="2" d="M259.5,-324C259.5,-324 162.5,-324 162.5,-324 156.5,-324 150.5,-318 150.5,-312 150.5,-312 150.5,-300 150.5,-300 150.5,-294 156.5,-288 162.5,-288 162.5,-288 259.5,-288 259.5,-288 265.5,-288 271.5,-294 271.5,-300 271.5,-300 271.5,-312 271.5,-312 271.5,-318 265.5,-324 259.5,-324"/>
<text text-anchor="middle" x="211" y="-303.5" font-family="sans" font-size="10.00" fill="#000000">copy_json_databases</text>
</g>
<!-- 7&#45;&gt;5 -->
<g id="edge16" class="edge">
<title>7&#45;&gt;5</title>
<path fill="none" stroke="#c0c0c0" stroke-width="2" d="M247.0849,-287.8314C265.7989,-278.4089 288.8432,-266.8062 308.74,-256.7883"/>
<polygon fill="#c0c0c0" stroke="#c0c0c0" stroke-width="2" points="310.5689,-259.7861 317.9266,-252.1628 307.4208,-253.5339 310.5689,-259.7861"/>
</g>
<!-- 7&#45;&gt;9 -->
<g id="edge19" class="edge">
<title>7&#45;&gt;9</title>
<path fill="none" stroke="#c0c0c0" stroke-width="2" d="M211,-287.8314C211,-280.131 211,-270.9743 211,-262.4166"/>
<polygon fill="#c0c0c0" stroke="#c0c0c0" stroke-width="2" points="214.5001,-262.4132 211,-252.4133 207.5001,-262.4133 214.5001,-262.4132"/>
</g>
<!-- 8 -->
<g id="node9" class="node">
<title>8</title>
<path fill="none" stroke="#56d86b" stroke-width="2" d="M390.5,-324C390.5,-324 301.5,-324 301.5,-324 295.5,-324 289.5,-318 289.5,-312 289.5,-312 289.5,-300 289.5,-300 289.5,-294 295.5,-288 301.5,-288 301.5,-288 390.5,-288 390.5,-288 396.5,-288 402.5,-294 402.5,-300 402.5,-300 402.5,-312 402.5,-312 402.5,-318 396.5,-324 390.5,-324"/>
<text text-anchor="middle" x="346" y="-303.5" font-family="sans" font-size="10.00" fill="#000000">get_gmt_databases</text>
</g>
<!-- 8&#45;&gt;5 -->
<g id="edge15" class="edge">
<title>8&#45;&gt;5</title>
<path fill="none" stroke="#c0c0c0" stroke-width="2" d="M348.0187,-287.8314C348.8743,-280.131 349.8917,-270.9743 350.8426,-262.4166"/>
<polygon fill="#c0c0c0" stroke="#c0c0c0" stroke-width="2" points="354.3283,-262.7386 351.9541,-252.4133 347.3711,-261.9656 354.3283,-262.7386"/>
</g>
<!-- 8&#45;&gt;9 -->
<g id="edge20" class="edge">
<title>8&#45;&gt;9</title>
<path fill="none" stroke="#c0c0c0" stroke-width="2" d="M311.9338,-287.8314C294.3467,-278.4516 272.7084,-266.9112 253.9832,-256.9244"/>
<polygon fill="#c0c0c0" stroke="#c0c0c0" stroke-width="2" points="255.5259,-253.7805 245.0553,-252.1628 252.2318,-259.957 255.5259,-253.7805"/>
</g>
<!-- 9&#45;&gt;0 -->
<g id="edge8" class="edge">
<title>9&#45;&gt;0</title>
<path fill="none" stroke="#c0c0c0" stroke-width="2" d="M225.4087,-215.9998C253.3968,-182.299 318.6614,-109.692 390,-72 450.7051,-39.9263 530.6964,-26.5872 576.828,-21.2786"/>
<polygon fill="#c0c0c0" stroke="#c0c0c0" stroke-width="2" points="577.4023,-24.7369 586.9667,-20.1792 576.6477,-17.7777 577.4023,-24.7369"/>
</g>
<!-- 9&#45;&gt;3 -->
<g id="edge11" class="edge">
<title>9&#45;&gt;3</title>
<path fill="none" stroke="#c0c0c0" stroke-width="2" d="M267.7376,-215.9243C298.9018,-205.9959 337.7311,-193.6255 370.3356,-183.2382"/>
<polygon fill="#c0c0c0" stroke="#c0c0c0" stroke-width="2" points="371.7733,-186.4536 380.239,-180.0831 369.6484,-179.7839 371.7733,-186.4536"/>
</g>
<!-- 9&#45;&gt;11 -->
<g id="edge24" class="edge">
<title>9&#45;&gt;11</title>
<path fill="none" stroke="#c0c0c0" stroke-width="2" d="M280.7372,-217.8646C283.8642,-217.2187 286.9628,-216.5939 290,-216 387.2365,-196.9856 414.7617,-207.3161 510,-180 510.1021,-179.9707 510.2043,-179.9413 510.3066,-179.9116"/>
<polygon fill="#c0c0c0" stroke="#c0c0c0" stroke-width="2" points="511.5371,-183.1914 519.942,-176.7409 509.349,-176.5422 511.5371,-183.1914"/>
</g>
<!-- 10 -->
<g id="node11" class="node">
<title>10</title>
<path fill="none" stroke="#d8bc56" stroke-width="2" d="M573,-108C573,-108 537,-108 537,-108 531,-108 525,-102 525,-96 525,-96 525,-84 525,-84 525,-78 531,-72 537,-72 537,-72 573,-72 573,-72 579,-72 585,-78 585,-84 585,-84 585,-96 585,-96 585,-102 579,-108 573,-108"/>
<text text-anchor="middle" x="555" y="-87.5" font-family="sans" font-size="10.00" fill="#000000">visualize</text>
</g>
<!-- 10&#45;&gt;0 -->
<g id="edge3" class="edge">
<title>10&#45;&gt;0</title>
<path fill="none" stroke="#c0c0c0" stroke-width="2" d="M569.8882,-71.8314C576.753,-63.454 585.0301,-53.3531 592.5511,-44.1749"/>
<polygon fill="#c0c0c0" stroke="#c0c0c0" stroke-width="2" points="595.2803,-46.3665 598.9114,-36.4133 589.8659,-41.9297 595.2803,-46.3665"/>
</g>
<!-- 11&#45;&gt;10 -->
<g id="edge22" class="edge">
<title>11&#45;&gt;10</title>
<path fill="none" stroke="#c0c0c0" stroke-width="2" d="M553.5047,-143.8314C553.7186,-136.131 553.9729,-126.9743 554.2106,-118.4166"/>
<polygon fill="#c0c0c0" stroke="#c0c0c0" stroke-width="2" points="557.7094,-118.5066 554.4885,-108.4133 550.7121,-118.3122 557.7094,-118.5066"/>
</g>
<!-- 12 -->
<g id="node13" class="node">
<title>12</title>
<path fill="none" stroke="#68d856" stroke-width="2" d="M754.5,-108C754.5,-108 707.5,-108 707.5,-108 701.5,-108 695.5,-102 695.5,-96 695.5,-96 695.5,-84 695.5,-84 695.5,-78 701.5,-72 707.5,-72 707.5,-72 754.5,-72 754.5,-72 760.5,-72 766.5,-78 766.5,-84 766.5,-84 766.5,-96 766.5,-96 766.5,-102 760.5,-108 754.5,-108"/>
<text text-anchor="middle" x="731" y="-87.5" font-family="sans" font-size="10.00" fill="#000000">env_export</text>
</g>
<!-- 12&#45;&gt;0 -->
<g id="edge6" class="edge">
<title>12&#45;&gt;0</title>
<path fill="none" stroke="#c0c0c0" stroke-width="2" d="M701.476,-71.8314C685.8255,-62.2003 666.4734,-50.2913 649.9535,-40.1252"/>
<polygon fill="#c0c0c0" stroke="#c0c0c0" stroke-width="2" points="651.4596,-36.9424 641.1086,-34.6822 647.7909,-42.9041 651.4596,-36.9424"/>
</g>
<!-- 13 -->
<g id="node14" class="node">
<title>13</title>
<path fill="none" stroke="#56c1d8" stroke-width="2" d="M855.5,-108C855.5,-108 796.5,-108 796.5,-108 790.5,-108 784.5,-102 784.5,-96 784.5,-96 784.5,-84 784.5,-84 784.5,-78 790.5,-72 796.5,-72 796.5,-72 855.5,-72 855.5,-72 861.5,-72 867.5,-78 867.5,-84 867.5,-84 867.5,-96 867.5,-96 867.5,-102 861.5,-108 855.5,-108"/>
<text text-anchor="middle" x="826" y="-87.5" font-family="sans" font-size="10.00" fill="#000000">config_export</text>
</g>
<!-- 13&#45;&gt;0 -->
<g id="edge9" class="edge">
<title>13&#45;&gt;0</title>
<path fill="none" stroke="#c0c0c0" stroke-width="2" d="M784.27,-75.2119C781.1351,-74.1193 778.0187,-73.0389 775,-72 732.4309,-57.3499 683.3613,-40.9636 650.6927,-30.125"/>
<polygon fill="#c0c0c0" stroke="#c0c0c0" stroke-width="2" points="651.6995,-26.7715 641.1061,-26.9475 649.4971,-33.4161 651.6995,-26.7715"/>
</g>
<!-- 14 -->
<g id="node15" class="node">
<title>14</title>
<path fill="none" stroke="#ced856" stroke-width="2" d="M954.5,-108C954.5,-108 897.5,-108 897.5,-108 891.5,-108 885.5,-102 885.5,-96 885.5,-96 885.5,-84 885.5,-84 885.5,-78 891.5,-72 897.5,-72 897.5,-72 954.5,-72 954.5,-72 960.5,-72 966.5,-78 966.5,-84 966.5,-84 966.5,-96 966.5,-96 966.5,-102 960.5,-108 954.5,-108"/>
<text text-anchor="middle" x="926" y="-87.5" font-family="sans" font-size="10.00" fill="#000000">annot_export</text>
</g>
<!-- 14&#45;&gt;0 -->
<g id="edge4" class="edge">
<title>14&#45;&gt;0</title>
<path fill="none" stroke="#c0c0c0" stroke-width="2" d="M885.4976,-74.8737C882.3012,-73.8472 879.1083,-72.875 876,-72 796.9541,-49.7478 702.1114,-32.4733 651.0034,-23.916"/>
<polygon fill="#c0c0c0" stroke="#c0c0c0" stroke-width="2" points="651.5201,-20.454 641.0825,-22.2727 650.3761,-27.3599 651.5201,-20.454"/>
</g>
</g>
</svg>
