<?xml version="1.0" encoding="UTF-8" standalone="no"?>
<!DOCTYPE svg PUBLIC "-//W3C//DTD SVG 1.1//EN"
 "http://www.w3.org/Graphics/SVG/1.1/DTD/svg11.dtd">
<!-- Generated by graphviz version 2.40.1 (0)
 -->
<!-- Title: snakemake_dag Pages: 1 -->
<svg width="1274pt" height="404pt"
 viewBox="0.00 0.00 1274.00 404.00" xmlns="http://www.w3.org/2000/svg" xmlns:xlink="http://www.w3.org/1999/xlink">
<g id="graph0" class="graph" transform="scale(1 1) rotate(0) translate(4 400)">
<title>snakemake_dag</title>
<polygon fill="#ffffff" stroke="transparent" points="-4,4 -4,-400 1270,-400 1270,4 -4,4"/>
<!-- 0 -->
<g id="node1" class="node">
<title>0</title>
<path fill="none" stroke="#567bd8" stroke-width="2" d="M778.5,-36C778.5,-36 748.5,-36 748.5,-36 742.5,-36 736.5,-30 736.5,-24 736.5,-24 736.5,-12 736.5,-12 736.5,-6 742.5,0 748.5,0 748.5,0 778.5,0 778.5,0 784.5,0 790.5,-6 790.5,-12 790.5,-12 790.5,-24 790.5,-24 790.5,-30 784.5,-36 778.5,-36"/>
<text text-anchor="middle" x="763.5" y="-15.5" font-family="sans" font-size="10.00" fill="#000000">all</text>
</g>
<!-- 1 -->
<g id="node2" class="node">
<title>1</title>
<path fill="none" stroke="#d85656" stroke-width="2" d="M500.5,-252C500.5,-252 340.5,-252 340.5,-252 334.5,-252 328.5,-246 328.5,-240 328.5,-240 328.5,-228 328.5,-228 328.5,-222 334.5,-216 340.5,-216 340.5,-216 500.5,-216 500.5,-216 506.5,-216 512.5,-222 512.5,-228 512.5,-228 512.5,-240 512.5,-240 512.5,-246 506.5,-252 500.5,-252"/>
<text text-anchor="middle" x="420.5" y="-231.5" font-family="sans" font-size="10.00" fill="#000000">region_enrichment_analysis_LOLA</text>
</g>
<!-- 1&#45;&gt;0 -->
<g id="edge1" class="edge">
<title>1&#45;&gt;0</title>
<path fill="none" stroke="#c0c0c0" stroke-width="2" d="M428.7258,-215.7478C438.1703,-196.2663 455.1473,-165.3291 476.5,-144 547.867,-72.7119 666.3609,-38.5987 726.313,-25.2016"/>
<polygon fill="#c0c0c0" stroke="#c0c0c0" stroke-width="2" points="727.4211,-28.543 736.4558,-23.009 725.942,-21.701 727.4211,-28.543"/>
</g>
<!-- 2 -->
<g id="node3" class="node">
<title>2</title>
<path fill="none" stroke="#78d856" stroke-width="2" d="M603,-180C603,-180 498,-180 498,-180 492,-180 486,-174 486,-168 486,-168 486,-156 486,-156 486,-150 492,-144 498,-144 498,-144 603,-144 603,-144 609,-144 615,-150 615,-156 615,-156 615,-168 615,-168 615,-174 609,-180 603,-180"/>
<text text-anchor="middle" x="550.5" y="-159.5" font-family="sans" font-size="10.00" fill="#000000">plot_enrichment_result</text>
</g>
<!-- 1&#45;&gt;2 -->
<g id="edge13" class="edge">
<title>1&#45;&gt;2</title>
<path fill="none" stroke="#c0c0c0" stroke-width="2" d="M453.3045,-215.8314C470.0862,-206.5368 490.6985,-195.1208 508.6163,-185.1971"/>
<polygon fill="#c0c0c0" stroke="#c0c0c0" stroke-width="2" points="510.6538,-188.0696 517.706,-180.1628 507.2623,-181.9461 510.6538,-188.0696"/>
</g>
<!-- 12 -->
<g id="node13" class="node">
<title>12</title>
<path fill="none" stroke="#569ad8" stroke-width="2" d="M687.5,-180C687.5,-180 645.5,-180 645.5,-180 639.5,-180 633.5,-174 633.5,-168 633.5,-168 633.5,-156 633.5,-156 633.5,-150 639.5,-144 645.5,-144 645.5,-144 687.5,-144 687.5,-144 693.5,-144 699.5,-150 699.5,-156 699.5,-156 699.5,-168 699.5,-168 699.5,-174 693.5,-180 687.5,-180"/>
<text text-anchor="middle" x="666.5" y="-159.5" font-family="sans" font-size="10.00" fill="#000000">aggregate</text>
</g>
<!-- 1&#45;&gt;12 -->
<g id="edge27" class="edge">
<title>1&#45;&gt;12</title>
<path fill="none" stroke="#c0c0c0" stroke-width="2" d="M498.3582,-215.9354C536.4516,-206.4286 582.7641,-193.8719 623.5,-180 623.6005,-179.9658 623.7012,-179.9314 623.8019,-179.8969"/>
<polygon fill="#c0c0c0" stroke="#c0c0c0" stroke-width="2" points="625.1489,-183.1311 633.3377,-176.4085 622.744,-176.5572 625.1489,-183.1311"/>
</g>
<!-- 2&#45;&gt;0 -->
<g id="edge3" class="edge">
<title>2&#45;&gt;0</title>
<path fill="none" stroke="#c0c0c0" stroke-width="2" d="M564.4733,-143.6838C580.3707,-123.8581 607.9788,-92.3537 637.5,-72 665.1247,-52.9538 700.5386,-38.5077 726.7833,-29.3717"/>
<polygon fill="#c0c0c0" stroke="#c0c0c0" stroke-width="2" points="728.0072,-32.6526 736.3575,-26.1318 725.7633,-26.022 728.0072,-32.6526"/>
</g>
<!-- 3 -->
<g id="node4" class="node">
<title>3</title>
<path fill="none" stroke="#d89556" stroke-width="2" d="M710,-252C710,-252 543,-252 543,-252 537,-252 531,-246 531,-240 531,-240 531,-228 531,-228 531,-222 537,-216 543,-216 543,-216 710,-216 710,-216 716,-216 722,-222 722,-228 722,-228 722,-240 722,-240 722,-246 716,-252 710,-252"/>
<text text-anchor="middle" x="626.5" y="-231.5" font-family="sans" font-size="10.00" fill="#000000">region_enrichment_analysis_GREAT</text>
</g>
<!-- 3&#45;&gt;0 -->
<g id="edge2" class="edge">
<title>3&#45;&gt;0</title>
<path fill="none" stroke="#c0c0c0" stroke-width="2" d="M664.9047,-215.8198C680.2835,-206.8936 697.0354,-194.8371 708.5,-180 739.688,-139.6375 753.7831,-80.5247 759.6831,-45.9824"/>
<polygon fill="#c0c0c0" stroke="#c0c0c0" stroke-width="2" points="763.1406,-46.5259 761.2609,-36.0991 756.2281,-45.4223 763.1406,-46.5259"/>
</g>
<!-- 3&#45;&gt;2 -->
<g id="edge14" class="edge">
<title>3&#45;&gt;2</title>
<path fill="none" stroke="#c0c0c0" stroke-width="2" d="M607.322,-215.8314C598.1412,-207.1337 586.9994,-196.5783 577.0224,-187.1265"/>
<polygon fill="#c0c0c0" stroke="#c0c0c0" stroke-width="2" points="579.3385,-184.4995 569.6719,-180.1628 574.5243,-189.5811 579.3385,-184.4995"/>
</g>
<!-- 3&#45;&gt;12 -->
<g id="edge28" class="edge">
<title>3&#45;&gt;12</title>
<path fill="none" stroke="#c0c0c0" stroke-width="2" d="M636.5937,-215.8314C641.0597,-207.7925 646.4075,-198.1666 651.3379,-189.2918"/>
<polygon fill="#c0c0c0" stroke="#c0c0c0" stroke-width="2" points="654.4735,-190.8546 656.2704,-180.4133 648.3544,-187.4551 654.4735,-190.8546"/>
</g>
<!-- 4 -->
<g id="node5" class="node">
<title>4</title>
<path fill="none" stroke="#d8b456" stroke-width="2" d="M699.5,-396C699.5,-396 613.5,-396 613.5,-396 607.5,-396 601.5,-390 601.5,-384 601.5,-384 601.5,-372 601.5,-372 601.5,-366 607.5,-360 613.5,-360 613.5,-360 699.5,-360 699.5,-360 705.5,-360 711.5,-366 711.5,-372 711.5,-372 711.5,-384 711.5,-384 711.5,-390 705.5,-396 699.5,-396"/>
<text text-anchor="middle" x="656.5" y="-375.5" font-family="sans" font-size="10.00" fill="#000000">prepare_databases</text>
</g>
<!-- 4&#45;&gt;3 -->
<g id="edge19" class="edge">
<title>4&#45;&gt;3</title>
<path fill="none" stroke="#c0c0c0" stroke-width="2" d="M652.7005,-359.7623C647.561,-335.0928 638.3458,-290.8598 632.3277,-261.9731"/>
<polygon fill="#c0c0c0" stroke="#c0c0c0" stroke-width="2" points="635.7347,-261.1656 630.2687,-252.0896 628.8819,-262.5933 635.7347,-261.1656"/>
</g>
<!-- 5 -->
<g id="node6" class="node">
<title>5</title>
<path fill="none" stroke="#b6d856" stroke-width="2" d="M932,-324C932,-324 781,-324 781,-324 775,-324 769,-318 769,-312 769,-312 769,-300 769,-300 769,-294 775,-288 781,-288 781,-288 932,-288 932,-288 938,-288 944,-294 944,-300 944,-300 944,-312 944,-312 944,-318 938,-324 932,-324"/>
<text text-anchor="middle" x="856.5" y="-303.5" font-family="sans" font-size="10.00" fill="#000000">region_gene_association_GREAT</text>
</g>
<!-- 4&#45;&gt;5 -->
<g id="edge20" class="edge">
<title>4&#45;&gt;5</title>
<path fill="none" stroke="#c0c0c0" stroke-width="2" d="M706.7103,-359.9243C734.0515,-350.0815 768.0594,-337.8386 796.7575,-327.5073"/>
<polygon fill="#c0c0c0" stroke="#c0c0c0" stroke-width="2" points="798.0457,-330.7635 806.2691,-324.0831 795.6746,-324.1773 798.0457,-330.7635"/>
</g>
<!-- 8 -->
<g id="node9" class="node">
<title>8</title>
<path fill="none" stroke="#97d856" stroke-width="2" d="M838.5,-252C838.5,-252 752.5,-252 752.5,-252 746.5,-252 740.5,-246 740.5,-240 740.5,-240 740.5,-228 740.5,-228 740.5,-222 746.5,-216 752.5,-216 752.5,-216 838.5,-216 838.5,-216 844.5,-216 850.5,-222 850.5,-228 850.5,-228 850.5,-240 850.5,-240 850.5,-246 844.5,-252 838.5,-252"/>
<text text-anchor="middle" x="795.5" y="-231.5" font-family="sans" font-size="10.00" fill="#000000">gene_ORA_GSEApy</text>
</g>
<!-- 4&#45;&gt;8 -->
<g id="edge23" class="edge">
<title>4&#45;&gt;8</title>
<path fill="none" stroke="#c0c0c0" stroke-width="2" d="M674.1044,-359.7623C698.6484,-334.3354 743.2541,-288.1253 771.0236,-259.3569"/>
<polygon fill="#c0c0c0" stroke="#c0c0c0" stroke-width="2" points="773.6116,-261.7153 778.0385,-252.0896 768.5752,-256.8537 773.6116,-261.7153"/>
</g>
<!-- 10 -->
<g id="node11" class="node">
<title>10</title>
<path fill="none" stroke="#56b9d8" stroke-width="2" d="M127,-252C127,-252 12,-252 12,-252 6,-252 0,-246 0,-240 0,-240 0,-228 0,-228 0,-222 6,-216 12,-216 12,-216 127,-216 127,-216 133,-216 139,-222 139,-228 139,-228 139,-240 139,-240 139,-246 133,-252 127,-252"/>
<text text-anchor="middle" x="69.5" y="-231.5" font-family="sans" font-size="10.00" fill="#000000">gene_preranked_GSEApy</text>
</g>
<!-- 4&#45;&gt;10 -->
<g id="edge25" class="edge">
<title>4&#45;&gt;10</title>
<path fill="none" stroke="#c0c0c0" stroke-width="2" d="M601.4347,-375.9632C468.931,-370.5972 140.3627,-354.3542 101.5,-324 82.6916,-309.3094 74.9171,-282.6933 71.7148,-262.2025"/>
<polygon fill="#c0c0c0" stroke="#c0c0c0" stroke-width="2" points="75.168,-261.6138 70.4227,-252.1411 68.225,-262.5055 75.168,-261.6138"/>
</g>
<!-- 5&#45;&gt;0 -->
<g id="edge4" class="edge">
<title>5&#45;&gt;0</title>
<path fill="none" stroke="#c0c0c0" stroke-width="2" d="M944.0982,-299.0581C1009.3111,-291.8575 1090.523,-277.8844 1111.5,-252 1121.5738,-239.5695 1119.5437,-229.8311 1111.5,-216 1076.4085,-155.6603 882.195,-68.1335 800.1244,-33.2139"/>
<polygon fill="#c0c0c0" stroke="#c0c0c0" stroke-width="2" points="801.2634,-29.8955 790.69,-29.2216 798.5354,-36.342 801.2634,-29.8955"/>
</g>
<!-- 5&#45;&gt;8 -->
<g id="edge22" class="edge">
<title>5&#45;&gt;8</title>
<path fill="none" stroke="#c0c0c0" stroke-width="2" d="M841.1071,-287.8314C834.0096,-279.454 825.452,-269.3531 817.676,-260.1749"/>
<polygon fill="#c0c0c0" stroke="#c0c0c0" stroke-width="2" points="820.2348,-257.7807 811.1001,-252.4133 814.8939,-262.3056 820.2348,-257.7807"/>
</g>
<!-- 9 -->
<g id="node10" class="node">
<title>9</title>
<path fill="none" stroke="#56d8b9" stroke-width="2" d="M1090.5,-252C1090.5,-252 880.5,-252 880.5,-252 874.5,-252 868.5,-246 868.5,-240 868.5,-240 868.5,-228 868.5,-228 868.5,-222 874.5,-216 880.5,-216 880.5,-216 1090.5,-216 1090.5,-216 1096.5,-216 1102.5,-222 1102.5,-228 1102.5,-228 1102.5,-240 1102.5,-240 1102.5,-246 1096.5,-252 1090.5,-252"/>
<text text-anchor="middle" x="985.5" y="-231.5" font-family="sans" font-size="10.00" fill="#000000">gene_motif_enrichment_analysis_RcisTarget</text>
</g>
<!-- 5&#45;&gt;9 -->
<g id="edge24" class="edge">
<title>5&#45;&gt;9</title>
<path fill="none" stroke="#c0c0c0" stroke-width="2" d="M889.0521,-287.8314C905.7048,-278.5368 926.1585,-267.1208 943.9385,-257.1971"/>
<polygon fill="#c0c0c0" stroke="#c0c0c0" stroke-width="2" points="945.9321,-260.0927 952.9583,-252.1628 942.5205,-253.9803 945.9321,-260.0927"/>
</g>
<!-- 6 -->
<g id="node7" class="node">
<title>6</title>
<path fill="none" stroke="#d6d856" stroke-width="2" d="M298,-252C298,-252 169,-252 169,-252 163,-252 157,-246 157,-240 157,-240 157,-228 157,-228 157,-222 163,-216 169,-216 169,-216 298,-216 298,-216 304,-216 310,-222 310,-228 310,-228 310,-240 310,-240 310,-246 304,-252 298,-252"/>
<text text-anchor="middle" x="233.5" y="-231.5" font-family="sans" font-size="10.00" fill="#000000">process_results_pycisTarget</text>
</g>
<!-- 6&#45;&gt;0 -->
<g id="edge5" class="edge">
<title>6&#45;&gt;0</title>
<path fill="none" stroke="#c0c0c0" stroke-width="2" d="M259.389,-215.79C308.054,-182.3886 417.4815,-111.1692 519.5,-72 590.0637,-44.9077 677.5883,-29.681 726.309,-22.7172"/>
<polygon fill="#c0c0c0" stroke="#c0c0c0" stroke-width="2" points="726.9621,-26.1602 736.3848,-21.3163 725.9981,-19.2268 726.9621,-26.1602"/>
</g>
<!-- 6&#45;&gt;2 -->
<g id="edge15" class="edge">
<title>6&#45;&gt;2</title>
<path fill="none" stroke="#c0c0c0" stroke-width="2" d="M310.2369,-216.5708C360.6555,-205.1193 426.2742,-190.2153 476.1938,-178.8771"/>
<polygon fill="#c0c0c0" stroke="#c0c0c0" stroke-width="2" points="476.9829,-182.2871 485.9593,-176.6591 475.4324,-175.461 476.9829,-182.2871"/>
</g>
<!-- 6&#45;&gt;12 -->
<g id="edge29" class="edge">
<title>6&#45;&gt;12</title>
<path fill="none" stroke="#c0c0c0" stroke-width="2" d="M310.331,-217.5677C313.4239,-217.0177 316.4892,-216.4924 319.5,-216 453.7716,-194.0422 491.9187,-214.6032 623.5,-180 623.6027,-179.973 623.7055,-179.9458 623.8084,-179.9184"/>
<polygon fill="#c0c0c0" stroke="#c0c0c0" stroke-width="2" points="624.9839,-183.218 633.4838,-176.8932 622.895,-176.5369 624.9839,-183.218"/>
</g>
<!-- 7 -->
<g id="node8" class="node">
<title>7</title>
<path fill="none" stroke="#d87556" stroke-width="2" d="M344.5,-324C344.5,-324 122.5,-324 122.5,-324 116.5,-324 110.5,-318 110.5,-312 110.5,-312 110.5,-300 110.5,-300 110.5,-294 116.5,-288 122.5,-288 122.5,-288 344.5,-288 344.5,-288 350.5,-288 356.5,-294 356.5,-300 356.5,-300 356.5,-312 356.5,-312 356.5,-318 350.5,-324 344.5,-324"/>
<text text-anchor="middle" x="233.5" y="-303.5" font-family="sans" font-size="10.00" fill="#000000">region_motif_enrichment_analysis_pycisTarget</text>
</g>
<!-- 7&#45;&gt;6 -->
<g id="edge21" class="edge">
<title>7&#45;&gt;6</title>
<path fill="none" stroke="#c0c0c0" stroke-width="2" d="M233.5,-287.8314C233.5,-280.131 233.5,-270.9743 233.5,-262.4166"/>
<polygon fill="#c0c0c0" stroke="#c0c0c0" stroke-width="2" points="237.0001,-262.4132 233.5,-252.4133 230.0001,-262.4133 237.0001,-262.4132"/>
</g>
<!-- 8&#45;&gt;0 -->
<g id="edge6" class="edge">
<title>8&#45;&gt;0</title>
<path fill="none" stroke="#c0c0c0" stroke-width="2" d="M792.8267,-215.9555C787.2503,-178.3144 774.3425,-91.1867 767.6666,-46.1246"/>
<polygon fill="#c0c0c0" stroke="#c0c0c0" stroke-width="2" points="771.1159,-45.5242 766.1882,-36.1451 764.1915,-46.5501 771.1159,-45.5242"/>
</g>
<!-- 8&#45;&gt;2 -->
<g id="edge16" class="edge">
<title>8&#45;&gt;2</title>
<path fill="none" stroke="#c0c0c0" stroke-width="2" d="M740.2117,-217.752C705.2316,-207.4722 659.6615,-194.0801 621.9514,-182.998"/>
<polygon fill="#c0c0c0" stroke="#c0c0c0" stroke-width="2" points="622.6246,-179.5478 612.0434,-180.0862 620.6508,-186.2638 622.6246,-179.5478"/>
</g>
<!-- 8&#45;&gt;12 -->
<g id="edge30" class="edge">
<title>8&#45;&gt;12</title>
<path fill="none" stroke="#c0c0c0" stroke-width="2" d="M762.9479,-215.8314C746.2952,-206.5368 725.8415,-195.1208 708.0615,-185.1971"/>
<polygon fill="#c0c0c0" stroke="#c0c0c0" stroke-width="2" points="709.4795,-181.9803 699.0417,-180.1628 706.0679,-188.0927 709.4795,-181.9803"/>
</g>
<!-- 9&#45;&gt;0 -->
<g id="edge10" class="edge">
<title>9&#45;&gt;0</title>
<path fill="none" stroke="#c0c0c0" stroke-width="2" d="M966.9542,-215.9555C927.4514,-177.5203 834.9186,-87.4884 789.5331,-43.3295"/>
<polygon fill="#c0c0c0" stroke="#c0c0c0" stroke-width="2" points="791.7571,-40.6101 782.1491,-36.1451 786.8756,-45.6272 791.7571,-40.6101"/>
</g>
<!-- 9&#45;&gt;2 -->
<g id="edge17" class="edge">
<title>9&#45;&gt;2</title>
<path fill="none" stroke="#c0c0c0" stroke-width="2" d="M868.2886,-217.0049C780.0654,-204.1305 668.3935,-187.6322 625.2561,-179.9701"/>
<polygon fill="#c0c0c0" stroke="#c0c0c0" stroke-width="2" points="625.8705,-176.5245 615.3991,-178.1366 624.5904,-183.4064 625.8705,-176.5245"/>
</g>
<!-- 9&#45;&gt;12 -->
<g id="edge31" class="edge">
<title>9&#45;&gt;12</title>
<path fill="none" stroke="#c0c0c0" stroke-width="2" d="M905.4146,-215.9243C843.2559,-201.8947 759.4934,-182.9891 709.446,-171.6931"/>
<polygon fill="#c0c0c0" stroke="#c0c0c0" stroke-width="2" points="710.1256,-168.2586 699.6003,-169.4709 708.5843,-175.0868 710.1256,-168.2586"/>
</g>
<!-- 10&#45;&gt;0 -->
<g id="edge12" class="edge">
<title>10&#45;&gt;0</title>
<path fill="none" stroke="#c0c0c0" stroke-width="2" d="M103.1144,-215.8801C166.8468,-182.3053 310.4435,-110.3606 439.5,-72 540.5697,-41.9582 664.6597,-27.1428 725.7929,-21.2305"/>
<polygon fill="#c0c0c0" stroke="#c0c0c0" stroke-width="2" points="726.4768,-24.6817 736.105,-20.2605 725.8211,-17.7125 726.4768,-24.6817"/>
</g>
<!-- 10&#45;&gt;2 -->
<g id="edge18" class="edge">
<title>10&#45;&gt;2</title>
<path fill="none" stroke="#c0c0c0" stroke-width="2" d="M139.1741,-217.5811C141.982,-217.0273 144.7654,-216.4976 147.5,-216 261.3887,-195.2757 394.7334,-178.9443 475.8761,-169.8817"/>
<polygon fill="#c0c0c0" stroke="#c0c0c0" stroke-width="2" points="476.4423,-173.3404 485.9954,-168.759 475.6704,-166.3831 476.4423,-173.3404"/>
</g>
<!-- 10&#45;&gt;12 -->
<g id="edge32" class="edge">
<title>10&#45;&gt;12</title>
<path fill="none" stroke="#c0c0c0" stroke-width="2" d="M139.1404,-217.3794C141.9576,-216.8815 144.7522,-216.4185 147.5,-216 353.9638,-184.5547 415.3084,-228.1945 623.0398,-179.5877"/>
<polygon fill="#c0c0c0" stroke="#c0c0c0" stroke-width="2" points="624.1279,-182.9264 633.0436,-177.2027 622.5045,-176.1173 624.1279,-182.9264"/>
</g>
<!-- 11 -->
<g id="node12" class="node">
<title>11</title>
<path fill="none" stroke="#56d89a" stroke-width="2" d="M694.5,-108C694.5,-108 658.5,-108 658.5,-108 652.5,-108 646.5,-102 646.5,-96 646.5,-96 646.5,-84 646.5,-84 646.5,-78 652.5,-72 658.5,-72 658.5,-72 694.5,-72 694.5,-72 700.5,-72 706.5,-78 706.5,-84 706.5,-84 706.5,-96 706.5,-96 706.5,-102 700.5,-108 694.5,-108"/>
<text text-anchor="middle" x="676.5" y="-87.5" font-family="sans" font-size="10.00" fill="#000000">visualize</text>
</g>
<!-- 11&#45;&gt;0 -->
<g id="edge9" class="edge">
<title>11&#45;&gt;0</title>
<path fill="none" stroke="#c0c0c0" stroke-width="2" d="M698.4538,-71.8314C709.1695,-62.9632 722.2189,-52.1637 733.809,-42.5718"/>
<polygon fill="#c0c0c0" stroke="#c0c0c0" stroke-width="2" points="736.0808,-45.2349 741.5533,-36.1628 731.6178,-39.8422 736.0808,-45.2349"/>
</g>
<!-- 12&#45;&gt;11 -->
<g id="edge26" class="edge">
<title>12&#45;&gt;11</title>
<path fill="none" stroke="#c0c0c0" stroke-width="2" d="M669.0234,-143.8314C670.0929,-136.131 671.3647,-126.9743 672.5532,-118.4166"/>
<polygon fill="#c0c0c0" stroke="#c0c0c0" stroke-width="2" points="676.0336,-118.7997 673.9426,-108.4133 669.1001,-117.8367 676.0336,-118.7997"/>
</g>
<!-- 13 -->
<g id="node14" class="node">
<title>13</title>
<path fill="none" stroke="#59d856" stroke-width="2" d="M1054,-108C1054,-108 1007,-108 1007,-108 1001,-108 995,-102 995,-96 995,-96 995,-84 995,-84 995,-78 1001,-72 1007,-72 1007,-72 1054,-72 1054,-72 1060,-72 1066,-78 1066,-84 1066,-84 1066,-96 1066,-96 1066,-102 1060,-108 1054,-108"/>
<text text-anchor="middle" x="1030.5" y="-87.5" font-family="sans" font-size="10.00" fill="#000000">env_export</text>
</g>
<!-- 13&#45;&gt;0 -->
<g id="edge7" class="edge">
<title>13&#45;&gt;0</title>
<path fill="none" stroke="#c0c0c0" stroke-width="2" d="M994.8682,-76.6744C990.0635,-75.0241 985.1789,-73.4204 980.5,-72 918.0794,-53.0513 844.1135,-35.7131 800.6497,-26.0347"/>
<polygon fill="#c0c0c0" stroke="#c0c0c0" stroke-width="2" points="801.3261,-22.5997 790.8062,-23.8577 799.8145,-29.4346 801.3261,-22.5997"/>
</g>
<!-- 14 -->
<g id="node15" class="node">
<title>14</title>
<path fill="none" stroke="#56d87b" stroke-width="2" d="M1155,-108C1155,-108 1096,-108 1096,-108 1090,-108 1084,-102 1084,-96 1084,-96 1084,-84 1084,-84 1084,-78 1090,-72 1096,-72 1096,-72 1155,-72 1155,-72 1161,-72 1167,-78 1167,-84 1167,-84 1167,-96 1167,-96 1167,-102 1161,-108 1155,-108"/>
<text text-anchor="middle" x="1125.5" y="-87.5" font-family="sans" font-size="10.00" fill="#000000">config_export</text>
</g>
<!-- 14&#45;&gt;0 -->
<g id="edge8" class="edge">
<title>14&#45;&gt;0</title>
<path fill="none" stroke="#c0c0c0" stroke-width="2" d="M1083.9298,-74.422C1081.0936,-73.5489 1078.265,-72.731 1075.5,-72 977.7353,-46.1529 859.372,-29.569 800.4942,-22.2819"/>
<polygon fill="#c0c0c0" stroke="#c0c0c0" stroke-width="2" points="800.8995,-18.8055 790.5495,-21.0699 800.0526,-25.7541 800.8995,-18.8055"/>
</g>
<!-- 15 -->
<g id="node16" class="node">
<title>15</title>
<path fill="none" stroke="#56d8d8" stroke-width="2" d="M1254,-108C1254,-108 1197,-108 1197,-108 1191,-108 1185,-102 1185,-96 1185,-96 1185,-84 1185,-84 1185,-78 1191,-72 1197,-72 1197,-72 1254,-72 1254,-72 1260,-72 1266,-78 1266,-84 1266,-84 1266,-96 1266,-96 1266,-102 1260,-108 1254,-108"/>
<text text-anchor="middle" x="1225.5" y="-87.5" font-family="sans" font-size="10.00" fill="#000000">annot_export</text>
</g>
<!-- 15&#45;&gt;0 -->
<g id="edge11" class="edge">
<title>15&#45;&gt;0</title>
<path fill="none" stroke="#c0c0c0" stroke-width="2" d="M1184.8041,-74.282C1182.0143,-73.4428 1179.2282,-72.6706 1176.5,-72 1040.6326,-38.6028 874.2235,-24.8422 801.0511,-20.1131"/>
<polygon fill="#c0c0c0" stroke="#c0c0c0" stroke-width="2" points="801.1458,-16.6123 790.9464,-19.4797 800.7078,-23.5986 801.1458,-16.6123"/>
</g>
</g>
</svg>
