<?xml version="1.0" encoding="UTF-8" standalone="no"?>
<!DOCTYPE svg PUBLIC "-//W3C//DTD SVG 1.1//EN"
 "http://www.w3.org/Graphics/SVG/1.1/DTD/svg11.dtd">
<!-- Generated by graphviz version 2.47.2 (20210527.1257)
 -->
<!-- Title: snakemake_dag Pages: 1 -->
<svg width="564pt" height="260pt"
 viewBox="0.00 0.00 564.00 260.00" xmlns="http://www.w3.org/2000/svg" xmlns:xlink="http://www.w3.org/1999/xlink">
<g id="graph0" class="graph" transform="scale(1 1) rotate(0) translate(4 256)">
<title>snakemake_dag</title>
<polygon fill="white" stroke="transparent" points="-4,4 -4,-256 560,-256 560,4 -4,4"/>
<!-- 0 -->
<g id="node1" class="node">
<title>0</title>
<path fill="none" stroke="#56a2d8" stroke-width="2" d="M343.5,-36C343.5,-36 313.5,-36 313.5,-36 307.5,-36 301.5,-30 301.5,-24 301.5,-24 301.5,-12 301.5,-12 301.5,-6 307.5,0 313.5,0 313.5,0 343.5,0 343.5,0 349.5,0 355.5,-6 355.5,-12 355.5,-12 355.5,-24 355.5,-24 355.5,-30 349.5,-36 343.5,-36"/>
<text text-anchor="middle" x="328.5" y="-15.5" font-family="sans" font-size="10.00">all</text>
</g>
<!-- 1 -->
<g id="node2" class="node">
<title>1</title>
<path fill="none" stroke="#56d8c9" stroke-width="2" d="M173,-180C173,-180 12,-180 12,-180 6,-180 0,-174 0,-168 0,-168 0,-156 0,-156 0,-150 6,-144 12,-144 12,-144 173,-144 173,-144 179,-144 185,-150 185,-156 185,-156 185,-168 185,-168 185,-174 179,-180 173,-180"/>
<text text-anchor="middle" x="92.5" y="-159.5" font-family="sans" font-size="10.00">region_enrichment_analysis_LOLA</text>
</g>
<!-- 1&#45;&gt;0 -->
<g id="edge5" class="edge">
<title>1&#45;&gt;0</title>
<path fill="none" stroke="grey" stroke-width="2" d="M98.43,-143.95C106.31,-123.81 122.12,-90.7 146.5,-72 189.28,-39.18 251.86,-26.66 291.37,-21.9"/>
<polygon fill="grey" stroke="grey" stroke-width="2" points="291.82,-25.37 301.37,-20.8 291.05,-18.41 291.82,-25.37"/>
</g>
<!-- 2 -->
<g id="node3" class="node">
<title>2</title>
<path fill="none" stroke="#c6d856" stroke-width="2" d="M273,-108C273,-108 168,-108 168,-108 162,-108 156,-102 156,-96 156,-96 156,-84 156,-84 156,-78 162,-72 168,-72 168,-72 273,-72 273,-72 279,-72 285,-78 285,-84 285,-84 285,-96 285,-96 285,-102 279,-108 273,-108"/>
<text text-anchor="middle" x="220.5" y="-87.5" font-family="sans" font-size="10.00">plot_enrichment_result</text>
</g>
<!-- 1&#45;&gt;2 -->
<g id="edge8" class="edge">
<title>1&#45;&gt;2</title>
<path fill="none" stroke="grey" stroke-width="2" d="M123.81,-143.88C140.7,-134.64 161.75,-123.13 179.88,-113.21"/>
<polygon fill="grey" stroke="grey" stroke-width="2" points="181.97,-116.06 189.07,-108.19 178.61,-109.92 181.97,-116.06"/>
</g>
<!-- 2&#45;&gt;0 -->
<g id="edge1" class="edge">
<title>2&#45;&gt;0</title>
<path fill="none" stroke="grey" stroke-width="2" d="M246.92,-71.88C260.91,-62.81 278.28,-51.55 293.39,-41.76"/>
<polygon fill="grey" stroke="grey" stroke-width="2" points="295.49,-44.57 301.98,-36.19 291.68,-38.69 295.49,-44.57"/>
</g>
<!-- 3 -->
<g id="node4" class="node">
<title>3</title>
<path fill="none" stroke="#d85656" stroke-width="2" d="M544,-252C544,-252 377,-252 377,-252 371,-252 365,-246 365,-240 365,-240 365,-228 365,-228 365,-222 371,-216 377,-216 377,-216 544,-216 544,-216 550,-216 556,-222 556,-228 556,-228 556,-240 556,-240 556,-246 550,-252 544,-252"/>
<text text-anchor="middle" x="460.5" y="-231.5" font-family="sans" font-size="10.00">region_enrichment_analysis_GREAT</text>
</g>
<!-- 3&#45;&gt;0 -->
<g id="edge2" class="edge">
<title>3&#45;&gt;0</title>
<path fill="none" stroke="grey" stroke-width="2" d="M463.42,-215.97C467.93,-183.61 472.64,-112.85 436.5,-72 417.73,-50.79 388.53,-37.17 365.23,-29.06"/>
<polygon fill="grey" stroke="grey" stroke-width="2" points="366.24,-25.71 355.65,-25.92 364.06,-32.36 366.24,-25.71"/>
</g>
<!-- 3&#45;&gt;2 -->
<g id="edge6" class="edge">
<title>3&#45;&gt;2</title>
<path fill="none" stroke="grey" stroke-width="2" d="M364.76,-216.14C306.25,-204.94 240.89,-190.42 231.5,-180 216.64,-163.5 214.92,-137.77 216.32,-118.21"/>
<polygon fill="grey" stroke="grey" stroke-width="2" points="219.82,-118.38 217.35,-108.08 212.85,-117.67 219.82,-118.38"/>
</g>
<!-- 4 -->
<g id="node5" class="node">
<title>4</title>
<path fill="none" stroke="#d8a456" stroke-width="2" d="M420,-180C420,-180 253,-180 253,-180 247,-180 241,-174 241,-168 241,-168 241,-156 241,-156 241,-150 247,-144 253,-144 253,-144 420,-144 420,-144 426,-144 432,-150 432,-156 432,-156 432,-168 432,-168 432,-174 426,-180 420,-180"/>
<text text-anchor="middle" x="336.5" y="-159.5" font-family="sans" font-size="10.00">gene_enrichment_analysis_GSEApy</text>
</g>
<!-- 3&#45;&gt;4 -->
<g id="edge9" class="edge">
<title>3&#45;&gt;4</title>
<path fill="none" stroke="grey" stroke-width="2" d="M430.17,-215.88C413.8,-206.64 393.42,-195.13 375.85,-185.21"/>
<polygon fill="grey" stroke="grey" stroke-width="2" points="377.38,-182.06 366.95,-180.19 373.94,-188.15 377.38,-182.06"/>
</g>
<!-- 6 -->
<g id="node7" class="node">
<title>6</title>
<path fill="none" stroke="#56d87b" stroke-width="2" d="M416,-108C416,-108 369,-108 369,-108 363,-108 357,-102 357,-96 357,-96 357,-84 357,-84 357,-78 363,-72 369,-72 369,-72 416,-72 416,-72 422,-72 428,-78 428,-84 428,-84 428,-96 428,-96 428,-102 422,-108 416,-108"/>
<text text-anchor="middle" x="392.5" y="-87.5" font-family="sans" font-size="10.00">summarize</text>
</g>
<!-- 3&#45;&gt;6 -->
<g id="edge11" class="edge">
<title>3&#45;&gt;6</title>
<path fill="none" stroke="grey" stroke-width="2" d="M459.24,-215.71C457.3,-197.1 452.46,-167.06 440.5,-144 435.16,-133.71 427.33,-123.87 419.53,-115.52"/>
<polygon fill="grey" stroke="grey" stroke-width="2" points="421.96,-113 412.45,-108.31 416.96,-117.9 421.96,-113"/>
</g>
<!-- 4&#45;&gt;0 -->
<g id="edge3" class="edge">
<title>4&#45;&gt;0</title>
<path fill="none" stroke="grey" stroke-width="2" d="M335.54,-143.87C334.17,-119.67 331.67,-75.21 330.04,-46.39"/>
<polygon fill="grey" stroke="grey" stroke-width="2" points="333.53,-45.98 329.47,-36.19 326.54,-46.37 333.53,-45.98"/>
</g>
<!-- 4&#45;&gt;2 -->
<g id="edge7" class="edge">
<title>4&#45;&gt;2</title>
<path fill="none" stroke="grey" stroke-width="2" d="M308.12,-143.88C292.96,-134.72 274.09,-123.34 257.76,-113.48"/>
<polygon fill="grey" stroke="grey" stroke-width="2" points="259.36,-110.36 248.99,-108.19 255.74,-116.35 259.36,-110.36"/>
</g>
<!-- 4&#45;&gt;6 -->
<g id="edge12" class="edge">
<title>4&#45;&gt;6</title>
<path fill="none" stroke="grey" stroke-width="2" d="M350.34,-143.7C356.99,-135.39 365.08,-125.28 372.39,-116.14"/>
<polygon fill="grey" stroke="grey" stroke-width="2" points="375.3,-118.1 378.82,-108.1 369.84,-113.73 375.3,-118.1"/>
</g>
<!-- 5 -->
<g id="node6" class="node">
<title>5</title>
<path fill="none" stroke="#78d856" stroke-width="2" d="M334.5,-252C334.5,-252 226.5,-252 226.5,-252 220.5,-252 214.5,-246 214.5,-240 214.5,-240 214.5,-228 214.5,-228 214.5,-222 220.5,-216 226.5,-216 226.5,-216 334.5,-216 334.5,-216 340.5,-216 346.5,-222 346.5,-228 346.5,-228 346.5,-240 346.5,-240 346.5,-246 340.5,-252 334.5,-252"/>
<text text-anchor="middle" x="280.5" y="-231.5" font-family="sans" font-size="10.00">load_enrichr_databases</text>
</g>
<!-- 5&#45;&gt;4 -->
<g id="edge10" class="edge">
<title>5&#45;&gt;4</title>
<path fill="none" stroke="grey" stroke-width="2" d="M294.34,-215.7C300.99,-207.39 309.08,-197.28 316.39,-188.14"/>
<polygon fill="grey" stroke="grey" stroke-width="2" points="319.3,-190.1 322.82,-180.1 313.84,-185.73 319.3,-190.1"/>
</g>
<!-- 6&#45;&gt;0 -->
<g id="edge4" class="edge">
<title>6&#45;&gt;0</title>
<path fill="none" stroke="grey" stroke-width="2" d="M376.68,-71.7C368.93,-63.22 359.46,-52.86 350.98,-43.58"/>
<polygon fill="grey" stroke="grey" stroke-width="2" points="353.47,-41.12 344.14,-36.1 348.3,-45.85 353.47,-41.12"/>
</g>
</g>
</svg>
