<?xml version="1.0" encoding="UTF-8" standalone="no"?>
<!DOCTYPE svg PUBLIC "-//W3C//DTD SVG 1.1//EN"
 "http://www.w3.org/Graphics/SVG/1.1/DTD/svg11.dtd">
<!-- Generated by graphviz version 2.40.1 (0)
 -->
<!-- Title: snakemake_dag Pages: 1 -->
<svg width="586pt" height="332pt"
 viewBox="0.00 0.00 585.50 332.00" xmlns="http://www.w3.org/2000/svg" xmlns:xlink="http://www.w3.org/1999/xlink">
<g id="graph0" class="graph" transform="scale(1 1) rotate(0) translate(4 328)">
<title>snakemake_dag</title>
<polygon fill="#ffffff" stroke="transparent" points="-4,4 -4,-328 581.5,-328 581.5,4 -4,4"/>
<!-- 0 -->
<g id="node1" class="node">
<title>0</title>
<path fill="none" stroke="#56d8a2" stroke-width="2" d="M293,-36C293,-36 263,-36 263,-36 257,-36 251,-30 251,-24 251,-24 251,-12 251,-12 251,-6 257,0 263,0 263,0 293,0 293,0 299,0 305,-6 305,-12 305,-12 305,-24 305,-24 305,-30 299,-36 293,-36"/>
<text text-anchor="middle" x="278" y="-15.5" font-family="sans" font-size="10.00" fill="#000000">all</text>
</g>
<!-- 1 -->
<g id="node2" class="node">
<title>1</title>
<path fill="none" stroke="#d8c356" stroke-width="2" d="M98,-252C98,-252 12,-252 12,-252 6,-252 0,-246 0,-240 0,-240 0,-228 0,-228 0,-222 6,-216 12,-216 12,-216 98,-216 98,-216 104,-216 110,-222 110,-228 110,-228 110,-240 110,-240 110,-246 104,-252 98,-252"/>
<text text-anchor="middle" x="55" y="-231.5" font-family="sans" font-size="10.00" fill="#000000">gene_ORA_GSEApy</text>
</g>
<!-- 1&#45;&gt;0 -->
<g id="edge3" class="edge">
<title>1&#45;&gt;0</title>
<path fill="none" stroke="#c0c0c0" stroke-width="2" d="M42.8183,-215.882C36.7685,-205.7891 30.1022,-192.7221 27,-180 15.14,-131.3624 20.6186,-104.1425 59,-72 86.3585,-49.0887 185.761,-31.4303 240.7606,-23.1579"/>
<polygon fill="#c0c0c0" stroke="#c0c0c0" stroke-width="2" points="241.4275,-26.5975 250.8102,-21.6765 240.4066,-19.6723 241.4275,-26.5975"/>
</g>
<!-- 3 -->
<g id="node4" class="node">
<title>3</title>
<path fill="none" stroke="#9fd856" stroke-width="2" d="M237.5,-180C237.5,-180 132.5,-180 132.5,-180 126.5,-180 120.5,-174 120.5,-168 120.5,-168 120.5,-156 120.5,-156 120.5,-150 126.5,-144 132.5,-144 132.5,-144 237.5,-144 237.5,-144 243.5,-144 249.5,-150 249.5,-156 249.5,-156 249.5,-168 249.5,-168 249.5,-174 243.5,-180 237.5,-180"/>
<text text-anchor="middle" x="185" y="-159.5" font-family="sans" font-size="10.00" fill="#000000">plot_enrichment_result</text>
</g>
<!-- 1&#45;&gt;3 -->
<g id="edge9" class="edge">
<title>1&#45;&gt;3</title>
<path fill="none" stroke="#c0c0c0" stroke-width="2" d="M87.8045,-215.8314C104.5862,-206.5368 125.1985,-195.1208 143.1163,-185.1971"/>
<polygon fill="#c0c0c0" stroke="#c0c0c0" stroke-width="2" points="145.1538,-188.0696 152.206,-180.1628 141.7623,-181.9461 145.1538,-188.0696"/>
</g>
<!-- 6 -->
<g id="node7" class="node">
<title>6</title>
<path fill="none" stroke="#c6d856" stroke-width="2" d="M90,-180C90,-180 48,-180 48,-180 42,-180 36,-174 36,-168 36,-168 36,-156 36,-156 36,-150 42,-144 48,-144 48,-144 90,-144 90,-144 96,-144 102,-150 102,-156 102,-156 102,-168 102,-168 102,-174 96,-180 90,-180"/>
<text text-anchor="middle" x="69" y="-159.5" font-family="sans" font-size="10.00" fill="#000000">aggregate</text>
</g>
<!-- 1&#45;&gt;6 -->
<g id="edge13" class="edge">
<title>1&#45;&gt;6</title>
<path fill="none" stroke="#c0c0c0" stroke-width="2" d="M58.5328,-215.8314C60.0301,-208.131 61.8105,-198.9743 63.4745,-190.4166"/>
<polygon fill="#c0c0c0" stroke="#c0c0c0" stroke-width="2" points="66.9465,-190.8975 65.4196,-180.4133 60.0752,-189.5614 66.9465,-190.8975"/>
</g>
<!-- 2 -->
<g id="node3" class="node">
<title>2</title>
<path fill="none" stroke="#d85656" stroke-width="2" d="M180,-324C180,-324 72,-324 72,-324 66,-324 60,-318 60,-312 60,-312 60,-300 60,-300 60,-294 66,-288 72,-288 72,-288 180,-288 180,-288 186,-288 192,-294 192,-300 192,-300 192,-312 192,-312 192,-318 186,-324 180,-324"/>
<text text-anchor="middle" x="126" y="-303.5" font-family="sans" font-size="10.00" fill="#000000">load_enrichr_databases</text>
</g>
<!-- 2&#45;&gt;1 -->
<g id="edge8" class="edge">
<title>2&#45;&gt;1</title>
<path fill="none" stroke="#c0c0c0" stroke-width="2" d="M108.0837,-287.8314C99.6558,-279.2848 89.459,-268.9443 80.264,-259.6198"/>
<polygon fill="#c0c0c0" stroke="#c0c0c0" stroke-width="2" points="82.6711,-257.0761 73.1575,-252.4133 77.6869,-261.9912 82.6711,-257.0761"/>
</g>
<!-- 4 -->
<g id="node5" class="node">
<title>4</title>
<path fill="none" stroke="#78d856" stroke-width="2" d="M255.5,-252C255.5,-252 140.5,-252 140.5,-252 134.5,-252 128.5,-246 128.5,-240 128.5,-240 128.5,-228 128.5,-228 128.5,-222 134.5,-216 140.5,-216 140.5,-216 255.5,-216 255.5,-216 261.5,-216 267.5,-222 267.5,-228 267.5,-228 267.5,-240 267.5,-240 267.5,-246 261.5,-252 255.5,-252"/>
<text text-anchor="middle" x="198" y="-231.5" font-family="sans" font-size="10.00" fill="#000000">gene_preranked_GSEApy</text>
</g>
<!-- 2&#45;&gt;4 -->
<g id="edge11" class="edge">
<title>2&#45;&gt;4</title>
<path fill="none" stroke="#c0c0c0" stroke-width="2" d="M144.1686,-287.8314C152.7152,-279.2848 163.0557,-268.9443 172.3802,-259.6198"/>
<polygon fill="#c0c0c0" stroke="#c0c0c0" stroke-width="2" points="174.9905,-261.9592 179.5867,-252.4133 170.0408,-257.0095 174.9905,-261.9592"/>
</g>
<!-- 3&#45;&gt;0 -->
<g id="edge4" class="edge">
<title>3&#45;&gt;0</title>
<path fill="none" stroke="#c0c0c0" stroke-width="2" d="M196.7785,-143.7623C212.9205,-118.7682 242.032,-73.6924 260.6653,-44.8409"/>
<polygon fill="#c0c0c0" stroke="#c0c0c0" stroke-width="2" points="263.832,-46.3889 266.3171,-36.0896 257.9517,-42.5912 263.832,-46.3889"/>
</g>
<!-- 4&#45;&gt;0 -->
<g id="edge5" class="edge">
<title>4&#45;&gt;0</title>
<path fill="none" stroke="#c0c0c0" stroke-width="2" d="M225.7763,-215.9078C237.6877,-206.6407 250.552,-194.2921 258,-180 280.2168,-137.368 281.7716,-80.1 280.2924,-46.3138"/>
<polygon fill="#c0c0c0" stroke="#c0c0c0" stroke-width="2" points="283.7808,-46.0067 279.7278,-36.2177 276.7917,-46.3976 283.7808,-46.0067"/>
</g>
<!-- 4&#45;&gt;3 -->
<g id="edge10" class="edge">
<title>4&#45;&gt;3</title>
<path fill="none" stroke="#c0c0c0" stroke-width="2" d="M194.7196,-215.8314C193.3292,-208.131 191.6759,-198.9743 190.1308,-190.4166"/>
<polygon fill="#c0c0c0" stroke="#c0c0c0" stroke-width="2" points="193.5458,-189.6322 188.3246,-180.4133 186.6572,-190.8761 193.5458,-189.6322"/>
</g>
<!-- 4&#45;&gt;6 -->
<g id="edge14" class="edge">
<title>4&#45;&gt;6</title>
<path fill="none" stroke="#c0c0c0" stroke-width="2" d="M165.4479,-215.8314C148.7952,-206.5368 128.3415,-195.1208 110.5615,-185.1971"/>
<polygon fill="#c0c0c0" stroke="#c0c0c0" stroke-width="2" points="111.9795,-181.9803 101.5417,-180.1628 108.5679,-188.0927 111.9795,-181.9803"/>
</g>
<!-- 5 -->
<g id="node6" class="node">
<title>5</title>
<path fill="none" stroke="#d87d56" stroke-width="2" d="M116,-108C116,-108 80,-108 80,-108 74,-108 68,-102 68,-96 68,-96 68,-84 68,-84 68,-78 74,-72 80,-72 80,-72 116,-72 116,-72 122,-72 128,-78 128,-84 128,-84 128,-96 128,-96 128,-102 122,-108 116,-108"/>
<text text-anchor="middle" x="98" y="-87.5" font-family="sans" font-size="10.00" fill="#000000">visualize</text>
</g>
<!-- 5&#45;&gt;0 -->
<g id="edge1" class="edge">
<title>5&#45;&gt;0</title>
<path fill="none" stroke="#c0c0c0" stroke-width="2" d="M128.128,-77.9488C159.2806,-65.4878 207.9486,-46.0205 241.3206,-32.6718"/>
<polygon fill="#c0c0c0" stroke="#c0c0c0" stroke-width="2" points="242.7396,-35.8738 250.7245,-28.9102 240.1399,-29.3745 242.7396,-35.8738"/>
</g>
<!-- 6&#45;&gt;5 -->
<g id="edge12" class="edge">
<title>6&#45;&gt;5</title>
<path fill="none" stroke="#c0c0c0" stroke-width="2" d="M76.3179,-143.8314C79.4876,-135.9617 83.27,-126.5712 86.7813,-117.8533"/>
<polygon fill="#c0c0c0" stroke="#c0c0c0" stroke-width="2" points="90.0939,-118.9968 90.5835,-108.4133 83.6008,-116.3815 90.0939,-118.9968"/>
</g>
<!-- 7 -->
<g id="node8" class="node">
<title>7</title>
<path fill="none" stroke="#59d856" stroke-width="2" d="M365.5,-108C365.5,-108 318.5,-108 318.5,-108 312.5,-108 306.5,-102 306.5,-96 306.5,-96 306.5,-84 306.5,-84 306.5,-78 312.5,-72 318.5,-72 318.5,-72 365.5,-72 365.5,-72 371.5,-72 377.5,-78 377.5,-84 377.5,-84 377.5,-96 377.5,-96 377.5,-102 371.5,-108 365.5,-108"/>
<text text-anchor="middle" x="342" y="-87.5" font-family="sans" font-size="10.00" fill="#000000">env_export</text>
</g>
<!-- 7&#45;&gt;0 -->
<g id="edge6" class="edge">
<title>7&#45;&gt;0</title>
<path fill="none" stroke="#c0c0c0" stroke-width="2" d="M325.8501,-71.8314C318.3283,-63.3694 309.2435,-53.1489 301.0196,-43.8971"/>
<polygon fill="#c0c0c0" stroke="#c0c0c0" stroke-width="2" points="303.627,-41.5621 294.3673,-36.4133 298.3951,-46.2127 303.627,-41.5621"/>
</g>
<!-- 8 -->
<g id="node9" class="node">
<title>8</title>
<path fill="none" stroke="#56d87b" stroke-width="2" d="M466.5,-108C466.5,-108 407.5,-108 407.5,-108 401.5,-108 395.5,-102 395.5,-96 395.5,-96 395.5,-84 395.5,-84 395.5,-78 401.5,-72 407.5,-72 407.5,-72 466.5,-72 466.5,-72 472.5,-72 478.5,-78 478.5,-84 478.5,-84 478.5,-96 478.5,-96 478.5,-102 472.5,-108 466.5,-108"/>
<text text-anchor="middle" x="437" y="-87.5" font-family="sans" font-size="10.00" fill="#000000">config_export</text>
</g>
<!-- 8&#45;&gt;0 -->
<g id="edge7" class="edge">
<title>8&#45;&gt;0</title>
<path fill="none" stroke="#c0c0c0" stroke-width="2" d="M396.8776,-71.8314C371.5382,-60.3569 339.0584,-45.6491 314.454,-34.5075"/>
<polygon fill="#c0c0c0" stroke="#c0c0c0" stroke-width="2" points="315.6607,-31.2118 305.1073,-30.275 312.7731,-37.5885 315.6607,-31.2118"/>
</g>
<!-- 9 -->
<g id="node10" class="node">
<title>9</title>
<path fill="none" stroke="#d8a456" stroke-width="2" d="M565.5,-108C565.5,-108 508.5,-108 508.5,-108 502.5,-108 496.5,-102 496.5,-96 496.5,-96 496.5,-84 496.5,-84 496.5,-78 502.5,-72 508.5,-72 508.5,-72 565.5,-72 565.5,-72 571.5,-72 577.5,-78 577.5,-84 577.5,-84 577.5,-96 577.5,-96 577.5,-102 571.5,-108 565.5,-108"/>
<text text-anchor="middle" x="537" y="-87.5" font-family="sans" font-size="10.00" fill="#000000">annot_export</text>
</g>
<!-- 9&#45;&gt;0 -->
<g id="edge2" class="edge">
<title>9&#45;&gt;0</title>
<path fill="none" stroke="#c0c0c0" stroke-width="2" d="M496.4654,-74.7538C493.6113,-73.7901 490.769,-72.8622 488,-72 428.066,-53.3375 357.1108,-36.0761 314.9213,-26.3087"/>
<polygon fill="#c0c0c0" stroke="#c0c0c0" stroke-width="2" points="315.6245,-22.8791 305.0944,-24.0489 314.0557,-29.7011 315.6245,-22.8791"/>
</g>
</g>
</svg>
