<?xml version="1.0" encoding="UTF-8" standalone="no"?>
<!DOCTYPE svg PUBLIC "-//W3C//DTD SVG 1.1//EN"
 "http://www.w3.org/Graphics/SVG/1.1/DTD/svg11.dtd">
<!-- Generated by graphviz version 2.47.2 (20210527.1257)
 -->
<!-- Title: snakemake_dag Pages: 1 -->
<svg width="460pt" height="188pt"
 viewBox="0.00 0.00 460.00 188.00" xmlns="http://www.w3.org/2000/svg" xmlns:xlink="http://www.w3.org/1999/xlink">
<g id="graph0" class="graph" transform="scale(1 1) rotate(0) translate(4 184)">
<title>snakemake_dag</title>
<polygon fill="white" stroke="transparent" points="-4,4 -4,-184 456,-184 456,4 -4,4"/>
<!-- 0 -->
<g id="node1" class="node">
<title>0</title>
<path fill="none" stroke="#d8bc56" stroke-width="2" d="M293,-36C293,-36 263,-36 263,-36 257,-36 251,-30 251,-24 251,-24 251,-12 251,-12 251,-6 257,0 263,0 263,0 293,0 293,0 299,0 305,-6 305,-12 305,-12 305,-24 305,-24 305,-30 299,-36 293,-36"/>
<text text-anchor="middle" x="278" y="-15.5" font-family="sans" font-size="10.00">all</text>
</g>
<!-- 1 -->
<g id="node2" class="node">
<title>1</title>
<path fill="none" stroke="#88d856" stroke-width="2" d="M142,-180C142,-180 12,-180 12,-180 6,-180 0,-174 0,-168 0,-168 0,-156 0,-156 0,-150 6,-144 12,-144 12,-144 142,-144 142,-144 148,-144 154,-150 154,-156 154,-156 154,-168 154,-168 154,-174 148,-180 142,-180"/>
<text text-anchor="middle" x="77" y="-159.5" font-family="sans" font-size="10.00">region_enrichment_analysis</text>
</g>
<!-- 1&#45;&gt;0 -->
<g id="edge1" class="edge">
<title>1&#45;&gt;0</title>
<path fill="none" stroke="grey" stroke-width="2" d="M83.9,-143.88C92.73,-123.99 109.83,-91.42 134,-72 165.25,-46.89 209.52,-32.99 240.7,-25.79"/>
<polygon fill="grey" stroke="grey" stroke-width="2" points="241.72,-29.15 250.74,-23.6 240.22,-22.31 241.72,-29.15"/>
</g>
<!-- 2 -->
<g id="node3" class="node">
<title>2</title>
<path fill="none" stroke="#56d88a" stroke-width="2" d="M292.5,-108C292.5,-108 155.5,-108 155.5,-108 149.5,-108 143.5,-102 143.5,-96 143.5,-96 143.5,-84 143.5,-84 143.5,-78 149.5,-72 155.5,-72 155.5,-72 292.5,-72 292.5,-72 298.5,-72 304.5,-78 304.5,-84 304.5,-84 304.5,-96 304.5,-96 304.5,-102 298.5,-108 292.5,-108"/>
<text text-anchor="middle" x="224" y="-87.5" font-family="sans" font-size="10.00">GSEApy_enrichment_analysis</text>
</g>
<!-- 1&#45;&gt;2 -->
<g id="edge5" class="edge">
<title>1&#45;&gt;2</title>
<path fill="none" stroke="grey" stroke-width="2" d="M112.96,-143.88C132.88,-134.39 157.82,-122.51 179.02,-112.42"/>
<polygon fill="grey" stroke="grey" stroke-width="2" points="180.63,-115.53 188.16,-108.07 177.62,-109.21 180.63,-115.53"/>
</g>
<!-- 2&#45;&gt;0 -->
<g id="edge2" class="edge">
<title>2&#45;&gt;0</title>
<path fill="none" stroke="grey" stroke-width="2" d="M237.35,-71.7C243.76,-63.39 251.56,-53.28 258.61,-44.14"/>
<polygon fill="grey" stroke="grey" stroke-width="2" points="261.47,-46.16 264.81,-36.1 255.93,-41.88 261.47,-46.16"/>
</g>
<!-- 3 -->
<g id="node4" class="node">
<title>3</title>
<path fill="none" stroke="#56c1d8" stroke-width="2" d="M289.5,-180C289.5,-180 184.5,-180 184.5,-180 178.5,-180 172.5,-174 172.5,-168 172.5,-168 172.5,-156 172.5,-156 172.5,-150 178.5,-144 184.5,-144 184.5,-144 289.5,-144 289.5,-144 295.5,-144 301.5,-150 301.5,-156 301.5,-156 301.5,-168 301.5,-168 301.5,-174 295.5,-180 289.5,-180"/>
<text text-anchor="middle" x="237" y="-159.5" font-family="sans" font-size="10.00">get_background_genes</text>
</g>
<!-- 3&#45;&gt;0 -->
<g id="edge3" class="edge">
<title>3&#45;&gt;0</title>
<path fill="none" stroke="grey" stroke-width="2" d="M275.78,-143.78C290.18,-135.24 304.96,-123.4 313,-108 323.76,-87.38 312.26,-62.68 299.65,-44.54"/>
<polygon fill="grey" stroke="grey" stroke-width="2" points="302.23,-42.14 293.46,-36.2 296.61,-46.32 302.23,-42.14"/>
</g>
<!-- 3&#45;&gt;2 -->
<g id="edge7" class="edge">
<title>3&#45;&gt;2</title>
<path fill="none" stroke="grey" stroke-width="2" d="M233.79,-143.7C232.35,-135.98 230.63,-126.71 229.04,-118.11"/>
<polygon fill="grey" stroke="grey" stroke-width="2" points="232.44,-117.3 227.18,-108.1 225.56,-118.58 232.44,-117.3"/>
</g>
<!-- 4 -->
<g id="node5" class="node">
<title>4</title>
<path fill="none" stroke="#d85656" stroke-width="2" d="M440,-180C440,-180 332,-180 332,-180 326,-180 320,-174 320,-168 320,-168 320,-156 320,-156 320,-150 326,-144 332,-144 332,-144 440,-144 440,-144 446,-144 452,-150 452,-156 452,-156 452,-168 452,-168 452,-174 446,-180 440,-180"/>
<text text-anchor="middle" x="386" y="-159.5" font-family="sans" font-size="10.00">load_enrichr_databases</text>
</g>
<!-- 4&#45;&gt;0 -->
<g id="edge4" class="edge">
<title>4&#45;&gt;0</title>
<path fill="none" stroke="grey" stroke-width="2" d="M376.69,-143.88C366.32,-125.41 348.56,-95.49 330,-72 322.21,-62.14 312.82,-52.11 304.17,-43.46"/>
<polygon fill="grey" stroke="grey" stroke-width="2" points="306.41,-40.76 296.82,-36.26 301.51,-45.76 306.41,-40.76"/>
</g>
<!-- 4&#45;&gt;2 -->
<g id="edge6" class="edge">
<title>4&#45;&gt;2</title>
<path fill="none" stroke="grey" stroke-width="2" d="M346.37,-143.88C324.22,-134.31 296.44,-122.3 272.94,-112.15"/>
<polygon fill="grey" stroke="grey" stroke-width="2" points="274.07,-108.82 263.5,-108.07 271.29,-115.25 274.07,-108.82"/>
</g>
</g>
</svg>
