<?xml version="1.0" encoding="UTF-8" standalone="no"?>
<!DOCTYPE svg PUBLIC "-//W3C//DTD SVG 1.1//EN"
 "http://www.w3.org/Graphics/SVG/1.1/DTD/svg11.dtd">
<!-- Generated by graphviz version 2.47.2 (20210527.1257)
 -->
<!-- Title: snakemake_dag Pages: 1 -->
<svg width="633pt" height="332pt"
 viewBox="0.00 0.00 633.18 332.00" xmlns="http://www.w3.org/2000/svg" xmlns:xlink="http://www.w3.org/1999/xlink">
<g id="graph0" class="graph" transform="scale(1 1) rotate(0) translate(4 328)">
<title>snakemake_dag</title>
<polygon fill="white" stroke="transparent" points="-4,4 -4,-328 629.18,-328 629.18,4 -4,4"/>
<!-- 0 -->
<g id="node1" class="node">
<title>0</title>
<path fill="none" stroke="#56b1d8" stroke-width="2" d="M294.68,-36C294.68,-36 264.68,-36 264.68,-36 258.68,-36 252.68,-30 252.68,-24 252.68,-24 252.68,-12 252.68,-12 252.68,-6 258.68,0 264.68,0 264.68,0 294.68,0 294.68,0 300.68,0 306.68,-6 306.68,-12 306.68,-12 306.68,-24 306.68,-24 306.68,-30 300.68,-36 294.68,-36"/>
<text text-anchor="middle" x="279.68" y="-15.5" font-family="sans" font-size="10.00">all</text>
</g>
<!-- 1 -->
<g id="node2" class="node">
<title>1</title>
<path fill="none" stroke="#d8b456" stroke-width="2" d="M207.18,-252C207.18,-252 46.18,-252 46.18,-252 40.18,-252 34.18,-246 34.18,-240 34.18,-240 34.18,-228 34.18,-228 34.18,-222 40.18,-216 46.18,-216 46.18,-216 207.18,-216 207.18,-216 213.18,-216 219.18,-222 219.18,-228 219.18,-228 219.18,-240 219.18,-240 219.18,-246 213.18,-252 207.18,-252"/>
<text text-anchor="middle" x="126.68" y="-231.5" font-family="sans" font-size="10.00">region_enrichment_analysis_LOLA</text>
</g>
<!-- 1&#45;&gt;0 -->
<g id="edge3" class="edge">
<title>1&#45;&gt;0</title>
<path fill="none" stroke="grey" stroke-width="2" d="M134.07,-215.95C142.36,-197.53 156.76,-167.66 172.68,-144 197.88,-106.58 232.7,-67.76 255.69,-43.51"/>
<polygon fill="grey" stroke="grey" stroke-width="2" points="258.33,-45.81 262.71,-36.17 253.27,-40.98 258.33,-45.81"/>
</g>
<!-- 2 -->
<g id="node3" class="node">
<title>2</title>
<path fill="none" stroke="#70d856" stroke-width="2" d="M299.18,-180C299.18,-180 194.18,-180 194.18,-180 188.18,-180 182.18,-174 182.18,-168 182.18,-168 182.18,-156 182.18,-156 182.18,-150 188.18,-144 194.18,-144 194.18,-144 299.18,-144 299.18,-144 305.18,-144 311.18,-150 311.18,-156 311.18,-156 311.18,-168 311.18,-168 311.18,-174 305.18,-180 299.18,-180"/>
<text text-anchor="middle" x="246.68" y="-159.5" font-family="sans" font-size="10.00">plot_enrichment_result</text>
</g>
<!-- 1&#45;&gt;2 -->
<g id="edge9" class="edge">
<title>1&#45;&gt;2</title>
<path fill="none" stroke="grey" stroke-width="2" d="M156.04,-215.88C171.73,-206.72 191.24,-195.34 208.14,-185.48"/>
<polygon fill="grey" stroke="grey" stroke-width="2" points="210.34,-188.25 217.22,-180.19 206.82,-182.21 210.34,-188.25"/>
</g>
<!-- 7 -->
<g id="node8" class="node">
<title>7</title>
<path fill="none" stroke="#56d86b" stroke-width="2" d="M113.18,-180C113.18,-180 66.18,-180 66.18,-180 60.18,-180 54.18,-174 54.18,-168 54.18,-168 54.18,-156 54.18,-156 54.18,-150 60.18,-144 66.18,-144 66.18,-144 113.18,-144 113.18,-144 119.18,-144 125.18,-150 125.18,-156 125.18,-156 125.18,-168 125.18,-168 125.18,-174 119.18,-180 113.18,-180"/>
<text text-anchor="middle" x="89.68" y="-159.5" font-family="sans" font-size="10.00">summarize</text>
</g>
<!-- 1&#45;&gt;7 -->
<g id="edge15" class="edge">
<title>1&#45;&gt;7</title>
<path fill="none" stroke="grey" stroke-width="2" d="M117.54,-215.7C113.28,-207.64 108.13,-197.89 103.42,-188.98"/>
<polygon fill="grey" stroke="grey" stroke-width="2" points="106.49,-187.31 98.73,-180.1 100.3,-190.58 106.49,-187.31"/>
</g>
<!-- 2&#45;&gt;0 -->
<g id="edge6" class="edge">
<title>2&#45;&gt;0</title>
<path fill="none" stroke="grey" stroke-width="2" d="M250.67,-143.87C256.31,-119.56 266.71,-74.82 273.41,-46.01"/>
<polygon fill="grey" stroke="grey" stroke-width="2" points="276.84,-46.72 275.69,-36.19 270.02,-45.14 276.84,-46.72"/>
</g>
<!-- 3 -->
<g id="node4" class="node">
<title>3</title>
<path fill="none" stroke="#5682d8" stroke-width="2" d="M182.18,-324C182.18,-324 15.18,-324 15.18,-324 9.18,-324 3.18,-318 3.18,-312 3.18,-312 3.18,-300 3.18,-300 3.18,-294 9.18,-288 15.18,-288 15.18,-288 182.18,-288 182.18,-288 188.18,-288 194.18,-294 194.18,-300 194.18,-300 194.18,-312 194.18,-312 194.18,-318 188.18,-324 182.18,-324"/>
<text text-anchor="middle" x="98.68" y="-303.5" font-family="sans" font-size="10.00">region_enrichment_analysis_GREAT</text>
</g>
<!-- 3&#45;&gt;0 -->
<g id="edge8" class="edge">
<title>3&#45;&gt;0</title>
<path fill="none" stroke="grey" stroke-width="2" d="M55.12,-287.87C39.82,-279.49 24.31,-267.74 15.68,-252 -11.81,-201.83 -5.29,-129.37 53.68,-72 80.27,-46.14 185.44,-30.07 242.46,-23.08"/>
<polygon fill="grey" stroke="grey" stroke-width="2" points="243,-26.54 252.52,-21.88 242.17,-19.59 243,-26.54"/>
</g>
<!-- 3&#45;&gt;2 -->
<g id="edge10" class="edge">
<title>3&#45;&gt;2</title>
<path fill="none" stroke="grey" stroke-width="2" d="M174.12,-287.88C194.07,-279.99 213.87,-268.54 227.68,-252 241.97,-234.89 246.28,-209.6 247.27,-190.35"/>
<polygon fill="grey" stroke="grey" stroke-width="2" points="250.78,-190.18 247.52,-180.1 243.78,-190.01 250.78,-190.18"/>
</g>
<!-- 4 -->
<g id="node5" class="node">
<title>4</title>
<path fill="none" stroke="#56d8c9" stroke-width="2" d="M454.18,-252C454.18,-252 287.18,-252 287.18,-252 281.18,-252 275.18,-246 275.18,-240 275.18,-240 275.18,-228 275.18,-228 275.18,-222 281.18,-216 287.18,-216 287.18,-216 454.18,-216 454.18,-216 460.18,-216 466.18,-222 466.18,-228 466.18,-228 466.18,-240 466.18,-240 466.18,-246 460.18,-252 454.18,-252"/>
<text text-anchor="middle" x="370.68" y="-231.5" font-family="sans" font-size="10.00">gene_enrichment_analysis_GSEApy</text>
</g>
<!-- 3&#45;&gt;4 -->
<g id="edge13" class="edge">
<title>3&#45;&gt;4</title>
<path fill="none" stroke="grey" stroke-width="2" d="M164.88,-287.97C203.95,-277.91 253.58,-265.14 294.31,-254.65"/>
<polygon fill="grey" stroke="grey" stroke-width="2" points="295.38,-257.99 304.2,-252.11 293.64,-251.21 295.38,-257.99"/>
</g>
<!-- 3&#45;&gt;7 -->
<g id="edge16" class="edge">
<title>3&#45;&gt;7</title>
<path fill="none" stroke="grey" stroke-width="2" d="M61.29,-287.8C47.14,-279.2 32.56,-267.32 24.68,-252 17.37,-237.77 17.82,-230.45 24.68,-216 30.25,-204.27 39.83,-194.28 49.94,-186.25"/>
<polygon fill="grey" stroke="grey" stroke-width="2" points="52.14,-188.98 58.11,-180.22 47.98,-183.35 52.14,-188.98"/>
</g>
<!-- 4&#45;&gt;0 -->
<g id="edge7" class="edge">
<title>4&#45;&gt;0</title>
<path fill="none" stroke="grey" stroke-width="2" d="M363.39,-215.85C347.55,-178.6 309.9,-90.07 290.97,-45.54"/>
<polygon fill="grey" stroke="grey" stroke-width="2" points="294.15,-44.07 287.01,-36.23 287.7,-46.8 294.15,-44.07"/>
</g>
<!-- 4&#45;&gt;2 -->
<g id="edge11" class="edge">
<title>4&#45;&gt;2</title>
<path fill="none" stroke="grey" stroke-width="2" d="M340.35,-215.88C323.99,-206.64 303.6,-195.13 286.03,-185.21"/>
<polygon fill="grey" stroke="grey" stroke-width="2" points="287.56,-182.06 277.14,-180.19 284.12,-188.15 287.56,-182.06"/>
</g>
<!-- 4&#45;&gt;7 -->
<g id="edge17" class="edge">
<title>4&#45;&gt;7</title>
<path fill="none" stroke="grey" stroke-width="2" d="M302.3,-215.97C250.35,-203.02 180.34,-185.58 135.11,-174.32"/>
<polygon fill="grey" stroke="grey" stroke-width="2" points="135.84,-170.89 125.29,-171.87 134.14,-177.68 135.84,-170.89"/>
</g>
<!-- 5 -->
<g id="node6" class="node">
<title>5</title>
<path fill="none" stroke="#9fd856" stroke-width="2" d="M424.68,-324C424.68,-324 316.68,-324 316.68,-324 310.68,-324 304.68,-318 304.68,-312 304.68,-312 304.68,-300 304.68,-300 304.68,-294 310.68,-288 316.68,-288 316.68,-288 424.68,-288 424.68,-288 430.68,-288 436.68,-294 436.68,-300 436.68,-300 436.68,-312 436.68,-312 436.68,-318 430.68,-324 424.68,-324"/>
<text text-anchor="middle" x="370.68" y="-303.5" font-family="sans" font-size="10.00">load_enrichr_databases</text>
</g>
<!-- 5&#45;&gt;4 -->
<g id="edge12" class="edge">
<title>5&#45;&gt;4</title>
<path fill="none" stroke="grey" stroke-width="2" d="M370.68,-287.7C370.68,-279.98 370.68,-270.71 370.68,-262.11"/>
<polygon fill="grey" stroke="grey" stroke-width="2" points="374.18,-262.1 370.68,-252.1 367.18,-262.1 374.18,-262.1"/>
</g>
<!-- 6 -->
<g id="node7" class="node">
<title>6</title>
<path fill="none" stroke="#d88556" stroke-width="2" d="M110.68,-108C110.68,-108 74.68,-108 74.68,-108 68.68,-108 62.68,-102 62.68,-96 62.68,-96 62.68,-84 62.68,-84 62.68,-78 68.68,-72 74.68,-72 74.68,-72 110.68,-72 110.68,-72 116.68,-72 122.68,-78 122.68,-84 122.68,-84 122.68,-96 122.68,-96 122.68,-102 116.68,-108 110.68,-108"/>
<text text-anchor="middle" x="92.68" y="-87.5" font-family="sans" font-size="10.00">visualize</text>
</g>
<!-- 6&#45;&gt;0 -->
<g id="edge2" class="edge">
<title>6&#45;&gt;0</title>
<path fill="none" stroke="grey" stroke-width="2" d="M122.73,-77.75C155.48,-65.5 207.88,-45.88 243.03,-32.72"/>
<polygon fill="grey" stroke="grey" stroke-width="2" points="244.31,-35.98 252.45,-29.19 241.86,-29.42 244.31,-35.98"/>
</g>
<!-- 7&#45;&gt;6 -->
<g id="edge14" class="edge">
<title>7&#45;&gt;6</title>
<path fill="none" stroke="grey" stroke-width="2" d="M90.43,-143.7C90.76,-135.98 91.15,-126.71 91.52,-118.11"/>
<polygon fill="grey" stroke="grey" stroke-width="2" points="95.02,-118.25 91.95,-108.1 88.03,-117.95 95.02,-118.25"/>
</g>
<!-- 8 -->
<g id="node9" class="node">
<title>8</title>
<path fill="none" stroke="#56d89a" stroke-width="2" d="M413.18,-108C413.18,-108 366.18,-108 366.18,-108 360.18,-108 354.18,-102 354.18,-96 354.18,-96 354.18,-84 354.18,-84 354.18,-78 360.18,-72 366.18,-72 366.18,-72 413.18,-72 413.18,-72 419.18,-72 425.18,-78 425.18,-84 425.18,-84 425.18,-96 425.18,-96 425.18,-102 419.18,-108 413.18,-108"/>
<text text-anchor="middle" x="389.68" y="-87.5" font-family="sans" font-size="10.00">env_export</text>
</g>
<!-- 8&#45;&gt;0 -->
<g id="edge5" class="edge">
<title>8&#45;&gt;0</title>
<path fill="none" stroke="grey" stroke-width="2" d="M362.78,-71.88C348.53,-62.81 330.84,-51.55 315.45,-41.76"/>
<polygon fill="grey" stroke="grey" stroke-width="2" points="317.01,-38.61 306.7,-36.19 313.25,-44.51 317.01,-38.61"/>
</g>
<!-- 9 -->
<g id="node10" class="node">
<title>9</title>
<path fill="none" stroke="#d85656" stroke-width="2" d="M514.18,-108C514.18,-108 455.18,-108 455.18,-108 449.18,-108 443.18,-102 443.18,-96 443.18,-96 443.18,-84 443.18,-84 443.18,-78 449.18,-72 455.18,-72 455.18,-72 514.18,-72 514.18,-72 520.18,-72 526.18,-78 526.18,-84 526.18,-84 526.18,-96 526.18,-96 526.18,-102 520.18,-108 514.18,-108"/>
<text text-anchor="middle" x="484.68" y="-87.5" font-family="sans" font-size="10.00">config_export</text>
</g>
<!-- 9&#45;&gt;0 -->
<g id="edge1" class="edge">
<title>9&#45;&gt;0</title>
<path fill="none" stroke="grey" stroke-width="2" d="M442.71,-74.67C405.55,-61.98 351.87,-43.65 316.39,-31.53"/>
<polygon fill="grey" stroke="grey" stroke-width="2" points="317.49,-28.21 306.9,-28.29 315.23,-34.84 317.49,-28.21"/>
</g>
<!-- 10 -->
<g id="node11" class="node">
<title>10</title>
<path fill="none" stroke="#ced856" stroke-width="2" d="M613.18,-108C613.18,-108 556.18,-108 556.18,-108 550.18,-108 544.18,-102 544.18,-96 544.18,-96 544.18,-84 544.18,-84 544.18,-78 550.18,-72 556.18,-72 556.18,-72 613.18,-72 613.18,-72 619.18,-72 625.18,-78 625.18,-84 625.18,-84 625.18,-96 625.18,-96 625.18,-102 619.18,-108 613.18,-108"/>
<text text-anchor="middle" x="584.68" y="-87.5" font-family="sans" font-size="10.00">annot_export</text>
</g>
<!-- 10&#45;&gt;0 -->
<g id="edge4" class="edge">
<title>10&#45;&gt;0</title>
<path fill="none" stroke="grey" stroke-width="2" d="M544.17,-74.49C541.31,-73.61 538.46,-72.77 535.68,-72 458.89,-50.83 367.06,-33.77 316.91,-25.14"/>
<polygon fill="grey" stroke="grey" stroke-width="2" points="317.31,-21.66 306.87,-23.43 316.14,-28.56 317.31,-21.66"/>
</g>
</g>
</svg>
